<svg xmlns="http://www.w3.org/2000/svg" fill="none" viewBox="0 0 600 600" id="House-2--Streamline-Bruxelles.svg" height="600" width="600"><desc>House 2 Streamline Illustration: https://streamlinehq.com</desc><g id="house-2--infrastructure-house"><g id="house"><path id="vector" fill="#ffcccc" d="M565.5 300.699c-0.42000000000000004 -4.053 -2.019 -8.25 -2.931 -12.236999999999998 -2.886 -12.648 0.201 -2.682 -8.823 -46.503 -6.603 -32.088 -5.37 -21.246 -7.601999999999999 -34.929 -0.483 -2.916 -0.669 -10.517999999999999 -2.7510000000000003 -12.716999999999999 -1.572 -1.6620000000000001 -5.382 -1.095 -7.665000000000001 -1.02 -78.852 2.484 -56.02799999999999 0.324 -108.63 0.9810000000000001 -3.921 0.048 -7.803 -0.372 -11.733 -0.255 -25.022999999999996 0.729 -52.67999999999999 -1.62 -59.150999999999996 -0.132 -7.238999999999999 1.6680000000000001 3.8129999999999997 15.249 -6.327 15.945 -9.492 0.648 -19.158 0.9359999999999999 -28.623 0.261 -3.585 -0.255 -8.120999999999999 0.681 -8.286 -3.579 -0.132 -3.3779999999999997 2.406 -11.766 1.7009999999999998 -12.951 -0.792 -1.317 -10.008 -0.35100000000000003 -11.892 -0.46799999999999997 -3.978 -0.243 -7.836 -0.069 -11.808 -0.006 -5.382 0.084 -22.224 -2.3040000000000003 -25.200000000000003 -1.095 1.377 2.931 1.7009999999999998 -0.666 90.177 66.687 0.015 14.216999999999999 0.29100000000000004 32.835 0.621 40.185 0.048 1.041 -0.498 4.164 0.048 4.977 0.192 0.29100000000000004 197.08499999999998 -0.399 202.98 -0.5429999999999999 3.489 -0.084 6.288 1.2269999999999999 5.8919999999999995 -2.598l0.003 -0.003Z" stroke-width="1"></path><path id="vector_2" fill="#fdeeca" d="M276.051 221.466c0.30300000000000005 2.31 -81.24 58.364999999999995 -81.60300000000001 62.150999999999996 -0.28500000000000003 2.985 3.6239999999999997 6.24 5.523 8.148 2.7600000000000002 2.7750000000000004 4.0680000000000005 5.826 8.106 3.2940000000000005 2.649 -1.6590000000000003 6.48 -6.954000000000001 9.546 -7.314 -0.34500000000000003 2.88 -0.14400000000000002 119.046 -0.28200000000000003 131.358 -18.351 -0.063 -144.234 -0.009000000000000001 -159.123 -0.21599999999999997 -8.292 -0.11399999999999999 -8.637 0.72 -8.934000000000001 -2.0250000000000004l-0.096 -137.202c0.8999999999999999 -1.8479999999999999 1.083 1.3800000000000001 70.40700000000001 -53.727 9.321000000000002 -7.41 33.974999999999994 -24.747 41.565 -30.096 35.409000000000006 -24.951 30.903 -23.181 39.974999999999994 -29.688000000000002 12.498000000000001 9.428999999999998 24.444 19.476 37.521 28.179000000000002 1.8119999999999998 1.206 37.299 26.409000000000002 37.394999999999996 27.137999999999998Z" stroke-width="1"></path><path id="vector_3" fill="#ffffff" d="M201 254.00400000000002c17.3307 0 31.380000000000003 -14.904900000000001 31.380000000000003 -33.291 0 -18.3861 -14.049299999999999 -33.291 -31.380000000000003 -33.291 -17.3307 0 -31.380000000000003 14.904900000000001 -31.380000000000003 33.291 0 18.3861 14.049299999999999 33.291 31.380000000000003 33.291Z" stroke-width="1"></path><path id="vector_4" fill="#ffffff" d="M200.688 148.068 16.113 284.505l7.011000000000001 9.876c26.565 -15.761999999999999 129.477 -94.5 137.067 -99.849 35.412 -24.945 40.704 -29.840999999999998 40.704 -29.840999999999998L278.35200000000003 221.43S194.81400000000002 279.828 194.448 283.614c-0.28200000000000003 2.985 3.6270000000000002 6.237 5.523 8.148 2.763 2.7720000000000002 4.272 4.65 8.312999999999999 2.121l82.19999999999999 -62.04599999999999 88.413 63.444 7.565999999999999 -10.548 -185.77499999999998 -136.665Z" stroke-width="1"></path><path id="vector_5" fill="#fdeeca" d="M549.192 465.549c0.026999999999999996 0.744 0.29700000000000004 4.881 0.44699999999999995 8.817l-22.5 0.069c-0.276 -13.518 0.855 -47.067 -1.7999999999999998 -115.365 -0.43199999999999994 -11.112 -0.639 -9.012 -27.647999999999996 -8.487 -42.345 0.8250000000000001 -112.03799999999998 -0.10500000000000001 -114.74700000000001 1.131 -3.495 1.596 -2.55 6.1080000000000005 -2.565 9.273 -0.096 21.846 -0.387 86.91 -0.5940000000000001 113.88900000000001l-22.823999999999998 0.063c-0.5549999999999999 -21.63 -0.372 -144.666 -0.249 -162.921 0.033 -4.923 -0.9990000000000001 -4.1819999999999995 17.109 -4.11 19.605 0.078 30.866999999999997 -1.416 67.623 -0.8340000000000001 100.923 1.596 106.32 -3.045 108.30599999999998 0.021 0 0 -1.512 131.874 -0.5640000000000001 158.454h0.006Z" stroke-width="1"></path><path id="vector_6" fill="#b8e5e5" d="M524.154 461.63399999999996c0.042 3.4259999999999997 0.21299999999999997 8.631 0.34500000000000003 12.807 -2.3850000000000002 0 -4.833 0.015 -7.334999999999999 0.021 -0.42599999999999993 -11.600999999999999 0.11399999999999999 -38.298 -0.675 -89.061 -0.339 -21.884999999999998 -0.11099999999999999 -22.701 -2.688 -23.946 -2.577 -1.2449999999999999 -32.412 0.12 -50.43899999999999 -0.165 -2.868 -0.045 -70.26 -0.75 -72.495 1.041 -1.929 1.545 -0.927 4.3919999999999995 -0.8819999999999999 25.395 0.078 36.464999999999996 -1.197 51.684000000000005 -0.11699999999999999 87.117l-7.632 0.021c0.29100000000000004 -18.633000000000003 0.972 -57.833999999999996 1.116 -109.143 0.006 -2.061 -1.257 -9.771 0.165 -11.262 1.368 -1.4369999999999998 54.111 -0.07500000000000001 126.906 -1.056 2.6550000000000002 -0.036000000000000004 5.364 -0.44999999999999996 8.01 -0.366 6.564 0.21000000000000002 4.343999999999999 -0.22199999999999998 5.721 108.597Z" stroke-width="1"></path><path id="vector_7" fill="#d9fffc" d="M513.333 462.66900000000004c1.08 0.774 0.897 7.6499999999999995 0.771 11.802l-121.40400000000001 0.366c-0.026999999999999996 -3.894 0.012 -7.3709999999999996 0.18 -7.899 0.5940000000000001 -1.884 0.384 -1.299 2.37 -1.6680000000000001 5.397 -1.0050000000000001 100.08600000000001 -0.198 113.34599999999999 -2.0669999999999997 1.02 -0.14400000000000002 3.846 -1.173 4.737 -0.534Z" stroke-width="1"></path><path id="vector_8" fill="#d9fffc" d="M513.345 412.68600000000004c0.045 12.747 0.759 12.807 0.192 13.767000000000001 -0.5940000000000001 1.0050000000000001 -1.7009999999999998 0.849 -2.901 0.9570000000000001 -5.019 0.45599999999999996 -107.334 1.041 -107.412 1.047 -10.553999999999998 0.20700000000000002 -9.927 1.2120000000000002 -10.431 -1.929 -0.44699999999999995 -2.7990000000000004 -0.927 -12.105 0.861 -13.187999999999999 0.861 -0.5189999999999999 97.35300000000001 -0.336 107.412 -0.798 2.019 -0.093 12.27 -1.9500000000000002 12.276 0.14400000000000002h0.003Z" stroke-width="1"></path><path id="vector_9" fill="#d9fffc" d="M513.519 451.42499999999995c0.12 2.7030000000000003 1.2389999999999999 7.382999999999999 -1.041 8.781 -0.786 0.483 -119.523 1.572 -119.59199999999998 1.5030000000000001 -0.8400000000000001 -0.8220000000000001 0.026999999999999996 -6.252000000000001 -0.123 -6.252000000000001 0 -1.104 -0.6060000000000001 -5.163 0.18 -6.1080000000000005 0.615 -0.738 3.57 -0.393 4.584 -0.45599999999999996 28.731 -1.767 76.248 0.954 107.385 -0.44099999999999995 1.977 -0.09 4.914 -1.035 6.798 -0.615 2.214 0.495 1.6919999999999997 0.8759999999999999 1.8119999999999998 3.585l-0.003 0.003Z" stroke-width="1"></path><path id="vector_10" fill="#d9fffc" d="M513.063 429.96c1.323 0.861 0.399 3.5010000000000003 0.387 4.8870000000000005 -0.078 8.928 1.1520000000000001 8.709 -1.0050000000000001 9.969 -3.162 1.845 -97.767 -0.5549999999999999 -111.684 0.522 -1.7639999999999998 0.138 -4.398 0.8999999999999999 -6.141 0.615 -2.205 -0.363 -1.809 0.27 -1.854 -2.544 -0.039 -2.331 -1.125 -9.051 0.22799999999999998 -10.89 1.344 -1.827 9.99 -0.744 12.243000000000002 -0.8280000000000001 0.11099999999999999 -0.003 89.73 -0.306 101.367 -1.0050000000000001 1.365 -0.081 5.523 -1.338 6.465 -0.723l-0.006 -0.003Z" stroke-width="1"></path><path id="vector_11" fill="#d9fffc" d="M513.333 395.142c0.717 0.9390000000000001 0.759 11.955 -0.042 13.056000000000001 -1.548 2.133 -5.79 1.047 -87.999 1.056 -32.321999999999996 0 -32.43 3.114 -32.232 -1.7309999999999999 0.45299999999999996 -11.058 -0.909 -11.016 1.173 -12.068999999999999 0.069 -0.042 83.538 0.35100000000000003 106.797 -0.46799999999999997 2.199 -0.078 11.028 -1.512 12.303 0.156Z" stroke-width="1"></path><path id="vector_12" fill="#d9fffc" d="M513.03 380.493c0.738 1.785 0.7020000000000001 8.016 0.261 9.879000000000001 -0.534 2.268 0.357 1.842 -8.424 1.6350000000000002 -26.945999999999998 -0.642 -110.727 1.311 -111.624 -0.28200000000000003 -0.5189999999999999 -0.9239999999999999 -0.5429999999999999 -11.399999999999999 0.05399999999999999 -11.988 1.6110000000000002 -1.578 89.991 0.026999999999999996 114.63600000000001 -0.46799999999999997 2.364 -0.048 4.269 -0.765 5.093999999999999 1.2269999999999999l0.003 -0.003Z" stroke-width="1"></path><path id="vector_13" fill="#d9fffc" d="M512.913 364.659c0.8220000000000001 0.675 -0.026999999999999996 11.151 -0.627 11.16 -61.845 0.789 -104.05799999999999 0.168 -111.97500000000001 0.41400000000000003 -1.2120000000000002 0.039 -5.067 1.02 -6.156000000000001 0.504 -1.791 -0.849 -1.911 -8.253 -1.2269999999999999 -10.098 0.807 -2.178 1.026 -1.6230000000000002 3.42 -1.536 2.364 0.08700000000000001 4.776 -0.22799999999999998 7.149 -0.255 0.069 0 109.173 -0.387 109.416 -0.189Z" stroke-width="1"></path><path id="vector_14" fill="#fddf98" d="M353.48400000000004 466.72200000000004c0.026999999999999996 1.0050000000000001 0.10200000000000001 4.473000000000001 0.11099999999999999 8.223l-7.947 0.026999999999999996c-0.063 -3.963 -0.162 -7.851 -0.36 -9.725999999999999 -0.5369999999999999 -5.079000000000001 -5.343 -4.227 -9.533999999999999 -3.8040000000000003 -0.33 -3.6870000000000003 0.05399999999999999 -7.452 -0.711 -11.097 1.593 -2.931 -5.853 -1.959 -6.666 -2.136 -1.908 -0.42000000000000004 -1.458 0.11699999999999999 -1.758 -2.13 -0.369 -2.778 0.384 -5.727 -0.23399999999999999 -8.504999999999999 -0.675 -3.0329999999999995 -1.6260000000000001 -2.577 -4.5 -2.646 -3.0869999999999997 -0.07500000000000001 -2.613 -0.159 -2.481 -3.255 0.135 -3.144 -1.62 -7.962 0.675 -9.237 1.584 -0.879 23.781 -0.10500000000000001 28.323 0.138 2.724 0.14400000000000002 3.9960000000000004 -0.552 4.341 2.061 0.9059999999999999 6.851999999999999 0.024 14.532 0.738 42.089999999999996l0.003 -0.003Z" stroke-width="1"></path><path id="vector_15" fill="#fdeeca" d="M353.313 280.05899999999997c0.138 0.387 -0.41400000000000003 1.9380000000000002 -0.46799999999999997 2.3850000000000002 -0.309 2.556 0 0 0.261 43.772999999999996 0.44099999999999995 73.758 -0.34500000000000003 16.433999999999997 -0.318 83.505 0 2.04 1.0739999999999998 7.853999999999999 -0.711 9.195 -0.759 0.5700000000000001 -1.9860000000000002 0.735 -3.3720000000000003 0.7020000000000001 -2.496 -0.05399999999999999 -16.998 -0.327 -18.936 -0.405 -2.607 -0.10799999999999998 -2.394 -1.125 -2.6189999999999998 -5.37 -0.573 -10.788 0.369 -0.021 -0.11099999999999999 -107.21100000000001 -0.078 -17.517000000000003 4.2059999999999995 -39.858 -36.135 -39.96 -13.640999999999998 -0.036000000000000004 -29.334000000000003 0.966 -36.603 14.591999999999999 -4.236 7.940999999999999 0.22799999999999998 45.159000000000006 -1.242 98.66399999999999 -0.789 28.779 0.9930000000000001 36.858 -1.047 39.126 -6.141 0.10200000000000001 -18.405 0.096 -31.11 0.063 0 -11.25 0.609 -110.21699999999998 0.153 -125.286 -0.06 -1.9860000000000002 -0.29400000000000004 -6.933 0.51 -8.61 1.218 -2.535 22.991999999999997 -15.347999999999999 54.705 -40.326 3.963 -3.1229999999999998 8.568 -9.24 13.475999999999999 -10.656 5.025 -1.452 19.581 15.236999999999998 48.006 34.371 2.667 1.794 5.157 3.708 7.638 5.742 1.629 1.335 7.2330000000000005 3.7829999999999995 7.92 5.709l0.003 -0.003Z" stroke-width="1"></path><path id="vector_16" fill="#fdeeca" d="M350.946 158.166c-0.5940000000000001 -2.745 0.10500000000000001 -1.119 -8.271 -0.792 -4.074 0.159 -4.9319999999999995 -0.801 -5.004 3.411 -0.066 3.771 0.09 7.134 -4.343999999999999 7.32 -2.082 0.08700000000000001 -8.493 -1.296 -10.176 -0.18 -2.157 1.434 -1.9380000000000002 8.25 -2.322 10.713000000000001 -0.21000000000000002 1.359 -2.04 7.728 -1.191 8.690999999999999 1.248 1.416 5.664 -0.96 6.963000000000001 1.419 1.002 1.833 0.5880000000000001 8.748 -0.069 10.74 -1.323 4.014 -4.833 0.909 -7.7669999999999995 2.166 -1.29 0.552 -1.53 1.08 -1.5870000000000002 2.661 -0.08700000000000001 2.496 0.258 3.5250000000000004 25.506 2.811 2.646 -0.07500000000000001 6.666 0.44399999999999995 9.276 -0.243 -1.0619999999999998 -48.717 -0.747 -47.483999999999995 -1.014 -48.717Z" stroke-width="1"></path><path id="vector_17" fill="#ffc8b2" d="M350.796 145.839c0.786 0.8400000000000001 0.192 3.8789999999999996 0.171 4.9079999999999995 -0.045 2.427 0.18 2.565 -1.722 3.2880000000000003 -1.8479999999999999 0.7020000000000001 -4.641 0.474 -6.5969999999999995 0.5369999999999999 -1.455 0.048 -4.434 0.615 -5.775 -0.033 -1.806 -0.873 -1.455 -2.985 -1.6620000000000001 -4.9559999999999995l0.048 -0.012c0 -2.991 1.083 -2.439 3.6959999999999997 -2.682 4.716 -0.43799999999999994 10.32 -2.6790000000000003 11.844 -1.047l-0.003 -0.003Z" stroke-width="1"></path><path id="vector_18" fill="#fdeeca" d="M350.802 138.87c0 1.8479999999999999 0.41400000000000003 2.904 -0.909 3.7560000000000002 -1.371 0.885 -14.61 -0.012 -16.614 3.303 -1.3920000000000001 2.3040000000000003 0.9059999999999999 6.2459999999999996 -0.18 8.436 -0.44099999999999995 0.891 -7.3020000000000005 1.905 -8.120999999999999 1.242 -0.933 -0.756 1.9860000000000002 -11.25 2.253 -12.759 0.486 -2.763 0.192 -6.6240000000000006 2.82 -7.836 1.584 -0.732 5.439 0 7.224 0 9.465 -0.006 11.862 -0.744 12.725999999999999 -0.026999999999999996 1.536 1.272 0.255 3.888 0.798 3.888l0.003 -0.003Z" stroke-width="1"></path><path id="vector_19" fill="#ffc8b2" d="M350.72700000000003 197.235c0 2.358 0.46799999999999997 2.811 -1.785 3.1769999999999996 -1.2269999999999999 0.198 -10.023 -0.648 -12.657 -0.372 -2.496 0.261 -2.634 1.113 -3.447 -1.4489999999999998 -2.583 -8.154 3.729 -5.1930000000000005 7.755 -5.16 2.4000000000000004 0.018000000000000002 5.274 -0.381 7.638 0.026999999999999996 2.778 0.48 2.496 0.738 2.496 3.7769999999999997Z" stroke-width="1"></path><path id="vector_20" fill="#ffc8b2" d="M344.448 181.845c-0.14400000000000002 0.507 -0.5489999999999999 0.738 -1.629 1.026 -1.923 0.516 -4.86 -0.366 -6.846 -0.51 -1.446 -0.10500000000000001 -7.2989999999999995 0.681 -8.34 -0.366 -0.5429999999999999 -0.546 -0.8400000000000001 -5.163 -0.5369999999999999 -5.583 1.6710000000000003 -2.343 10.167 -0.321 12.765 -0.11699999999999999 2.739 0.21599999999999997 3.906 -0.126 4.41 1.269 0.312 0.861 0.48 3.204 0.177 4.281000000000001Z" stroke-width="1"></path><path id="vector_21" fill="#ffc8b2" d="M333.798 165.34199999999998c-0.8759999999999999 0.36 -3.7829999999999995 -0.18 -4.812 -0.18 -4.611 0.003 -6.195 1.5390000000000001 -5.226 -3.4799999999999995 0.759 -3.93 1.53 -3.2969999999999997 5.349 -3.7230000000000003 2.733 -0.30300000000000005 4.776 -0.948 5.655 0.42299999999999993 0.6930000000000001 1.08 1.0979999999999999 6.113999999999999 -0.966 6.959999999999999Z" stroke-width="1"></path><path id="vector_22" fill="#ffc8b2" d="M323.808 395.70899999999995c-0.684 -4.35 2.151 -81.177 -0.723 -106.17 -1.929 -16.806 -19.107 -19.716 -33.267 -19.839000000000002 -14.808 -0.132 -32.838 3.57 -33.888 21.333 -0.006 0.069 0.483 126.89099999999999 1.104 127.974 0.552 0.9510000000000001 61.407000000000004 0.249 62.583 0.249 3.4530000000000003 0.006 3.963 0.75 4.2059999999999995 -2.46 0.522 -6.984 -0.8220000000000001 -14.07 -0.015 -21.087Z" stroke-width="1"></path><path id="vector_23" fill="#ffc8b2" d="M320.76300000000003 190.15800000000002c5.901 -1.6740000000000002 2.778 9.009 2.262 8.961 -5.045999999999999 -0.45599999999999996 -5.223000000000001 0.14400000000000002 -4.6049999999999995 -4.1160000000000005 0.324 -2.241 0.015 -4.1850000000000005 2.343 -4.848000000000001v0.003Z" stroke-width="1"></path><path id="vector_24" fill="#bfeaff" d="M306.108 296.466c4.446 -0.255 9.363 -1.839 7.176 5.079000000000001 -0.711 2.247 -1.2120000000000002 1.5630000000000002 -3.963 1.6260000000000001 -10.719 0.249 -13.389 1.044 -14.484000000000002 -0.29700000000000004 -0.44999999999999996 -0.552 -0.8699999999999999 -4.827 -0.44099999999999995 -5.64 1.095 -2.0759999999999996 1.242 -0.165 11.712 -0.768Z" stroke-width="1"></path><path id="vector_25" fill="#fdeeca" d="M312.525 365.39099999999996c1.641 5.2170000000000005 -9.321000000000002 0.44699999999999995 -2.862 -2.1029999999999998 1.593 -0.627 2.88 0.20700000000000002 2.862 2.1029999999999998Z" stroke-width="1"></path><path id="vector_26" fill="#d9b8ad" d="M311.712 413.217c0.43499999999999994 7.976999999999999 2.529 5.9910000000000005 -4.122 6.161999999999999 -36.974999999999994 0.9510000000000001 -36.21 1.137 -36.99 0.8130000000000001 -1.896 -0.40800000000000003 -1.4040000000000001 -8.196000000000002 -1.446 -10.644 -0.41400000000000003 -23.381999999999998 -0.6990000000000001 -77.385 -0.669 -83.313 0.012 -2.469 -1.014 -9.042 1.026 -9.959999999999999 2.1719999999999997 -0.978 7.0649999999999995 0.507 16.848 -0.36 5.775 -0.51 11.697 -0.23099999999999998 17.502 -0.30300000000000005 1.482 -0.018000000000000002 4.7669999999999995 -0.714 5.904 0.375 1.1280000000000001 1.077 1.284 42.882000000000005 1.0379999999999998 43.349999999999994 -1.317 2.508 -5.622 2.184 -5.550000000000001 6.63 0.078 4.797 4.851 3.399 5.886 6.2250000000000005 1.0170000000000001 2.778 -0.8370000000000001 15.107999999999999 0.573 41.025000000000006Z" stroke-width="1"></path><path id="vector_27" fill="#bfeaff" d="M311.793 287.421c-4.845 0.27 -9.767999999999999 -0.396 -14.622 -0.393 -2.763 0 -3.096 0.021 -3.351 -2.88 -0.309 -3.537 -0.9570000000000001 -3.798 2.586 -3.798 5.136 0.516 13.317 1.149 15.386999999999999 7.071000000000001Z" stroke-width="1"></path><path id="vector_28" fill="#ffc8b2" d="M301.572 387.06899999999996c0.066 1.758 1.149 8.745000000000001 -0.33 10.251 -0.996 1.0170000000000001 -9.498 -0.11399999999999999 -11.214 -0.09 -2.082 0.03 -8.58 1.191 -10.236 -0.28200000000000003 -0.978 -0.8699999999999999 -0.378 -8.76 -0.387 -10.071000000000002 -0.34500000000000003 -49.095 -1.458 -59.48100000000001 -0.765 -60.108000000000004 0.795 -0.72 4.011 0.138 4.949999999999999 0.159 20.226 0.44099999999999995 16.971 -5.211 17.289 14.337 0.249 15.330000000000002 0.10799999999999998 30.468000000000004 0.6960000000000001 45.807l-0.003 -0.003Z" stroke-width="1"></path><path id="vector_29" fill="#bfeaff" d="M285.915 296.742c0.621 0.663 0.42599999999999993 6.723000000000001 -0.627 6.708 -0.786 -0.012 -18.977999999999998 0.10200000000000001 -19.053 0.10200000000000001 -0.123 -1.185 -1.104 -5.901 -0.387 -6.798 1.218 -1.518 8.28 -0.513 10.161 -0.477 1.641 0.033 8.742 -0.777 9.906 0.46499999999999997Z" stroke-width="1"></path><path id="vector_30" fill="#bfeaff" d="M285.633 280.9257c0.768 8.595 -0.048 7.032 -6.3149999999999995 6.8100000000000005 -1.773 -0.063 -10.553999999999998 1.3920000000000001 -11.559000000000001 0.11699999999999999 -3.2700000000000005 -4.1370000000000005 17.475 -11.382 17.874000000000002 -6.9270000000000005Z" stroke-width="1"></path><path id="vector_31" fill="#fddf98" d="M265.692 430.79999999999995c0.10200000000000001 1.641 0.9299999999999999 3.729 -0.36 4.8180000000000005 -2.211 1.869 -6.366 -1.2269999999999999 -8.589 1.8119999999999998 -1.584 2.166 0.07200000000000001 6.714 -0.021 9.294 -0.14700000000000002 4.059 -2.862 1.839 -5.976 2.4749999999999996 -2.6550000000000002 0.5429999999999999 -2.568 1.758 -2.604 4.302 -0.015 1.104 0.723 7.382999999999999 -0.036000000000000004 8.052 -1.629 1.44 -6.074999999999999 -0.189 -8.133 0.717 -2.862 1.257 -1.869 4.2330000000000005 -1.869 7.149 0 0 0.11099999999999999 2.613 0.153 5.865 -30.128999999999998 1.131 -187.779 0.255 -187.779 0.255 -0.46199999999999997 -13.274999999999999 -1.299 -48.087 -1.407 -50.04 -0.099 -1.758 0 -3.3360000000000003 0.621 -3.93 0.399 -0.381 212.56799999999998 0.21599999999999997 214.42200000000003 1.0619999999999998 2.7510000000000003 1.257 1.416 5.529 1.578 8.169Z" stroke-width="1"></path><path id="vector_32" fill="#bfeaff" d="M222.858 220.281c1.338 14.835 -17.576999999999998 26.529 -19.727999999999998 21.198 -0.324 -0.807 -0.279 -11.973 -0.261 -13.049999999999999 0.03 -1.971 -1.113 -6.909 0.489 -7.947 1.4849999999999999 -0.96 7.521000000000001 0.597 9.624 0.5940000000000001 3.351 -0.006 6.555 -0.495 9.879000000000001 -0.792l-0.003 -0.003Z" stroke-width="1"></path><path id="vector_33" fill="#bfeaff" d="M207.126 198.29700000000003c12.168 3.795 16.644 16.442999999999998 14.979000000000001 18.410999999999998 -1.377 1.629 -9.801 0.378 -9.801 0.585 -1.896 0 -7.505999999999999 0.909 -9.057 -0.366 -1.4040000000000001 -1.1520000000000001 -0.621 -4.542 -0.627 -6.1770000000000005 -0.063 -13.593 -1.5990000000000002 -14.361 4.5089999999999995 -12.456l-0.003 0.003Z" stroke-width="1"></path><path id="vector_34" fill="#bfeaff" d="M199.26 234.56400000000002c0.243 7.7490000000000006 2.649 11.973 -8.487 5.778 -5.451 -3.0329999999999995 -9.417 -9.009 -10.803 -14.756999999999998 -1.779 -7.395 -0.42000000000000004 -3.9240000000000004 11.097 -5.115 10.773 -1.113 7.7010000000000005 -1.4489999999999998 8.19 14.097l0.003 -0.003Z" stroke-width="1"></path><path id="vector_35" fill="#bfeaff" d="M198.819 204.84c1.047 11.733 1.3800000000000001 11.834999999999999 -3.0389999999999997 11.834999999999999 -0.063 -0.654 -14.511 3.24 -16.104 -0.627 -0.849 -2.061 2.649 -7.553999999999999 3.8129999999999997 -9.204 4.728 -6.711 12.972 -9.933 14.405999999999999 -9.153 1.5870000000000002 0.861 0.777 5.508 0.9239999999999999 7.149Z" stroke-width="1"></path><path id="vector_36" fill="#ffc8b2" d="M177.747 385.251c0.021 2.937 1.182 12.135 -0.7020000000000001 13.884 -0.9059999999999999 0.8400000000000001 -0.489 -0.189 -35.196 0.123 -9.975000000000001 0.09 -11.319 1.923 -11.58 -2.949 -1.002 -18.729 -0.24 -103.785 -0.324 -110.27099999999999 -0.042 -3.1289999999999996 -0.366 -3.6210000000000004 2.847 -4.1579999999999995 8.064 -1.347 21.735 0.018000000000000002 37.326 -0.648 1.566 -0.066 5.493 -1.116 6.693 -0.159 1.569 1.251 0.20400000000000001 0 0.9359999999999999 104.178Z" stroke-width="1"></path><path id="vector_37" fill="#bfeaff" d="M171.273 379.833c-0.009000000000000001 2.061 1.0739999999999998 10.587 -0.45599999999999996 12.035999999999998 -0.669 0.633 -3.447 0.717 -6.2669999999999995 0.621 -3.3420000000000005 -0.11699999999999999 -6.741 -0.495 -6.741 -0.5309999999999999 -17.997 0 -19.419 1.3800000000000001 -20.307000000000002 -0.35100000000000003 -1.1400000000000001 -2.226 -0.165 -8.115 -0.192 -10.533000000000001 -0.012 -0.9390000000000001 -0.23099999999999998 -28.205999999999996 -0.22799999999999998 -39.747 0 -2.055 -0.9990000000000001 -9.321000000000002 0.5369999999999999 -10.512 1.6949999999999998 -1.317 9.477 -0.23099999999999998 11.559000000000001 -0.28800000000000003 3.9000000000000004 -0.11099999999999999 7.797000000000001 -0.183 11.690999999999999 -0.20700000000000002 1.9020000000000001 -0.012 8.919 -1.383 10.071000000000002 0.033 0.138 0.171 0.333 49.41 0.333 49.479Z" stroke-width="1"></path><path id="vector_38" fill="#bfeaff" d="M170.853 287.8827c0.23399999999999999 2.574 0.048 30.5283 0.033 30.8403 -0.10799999999999998 2.0220000000000002 -0.42000000000000004 2.028 -1.218 2.349 -2.0759999999999996 0.8400000000000001 -6.5009999999999994 0.069 -8.706 0.11699999999999999 -23.085 0.501 -22.416 1.116 -23.127 0.45599999999999996 -1.173 -1.095 -0.666 -4.743 -0.663 -6.141 0.093 -27.351300000000002 -1.8599999999999999 -26.673299999999998 2.0669999999999997 -27.207300000000004 10.299 -1.4040000000000001 21.410999999999998 1.518 31.614 -0.41400000000000003Z" stroke-width="1"></path><path id="vector_39" fill="#ffc8b2" d="M149.112 449.496c0.384 17.391 0.9990000000000001 15.504000000000001 -5.583 15.495000000000001l-58.364999999999995 0.015c-2.82 0 -5.787 1.173 -6.1499999999999995 -2.184 -0.654 -6.093 0.078 -12.747 0.07500000000000001 -18.942 0 -3.516 -1.734 -12.939 2.283 -14.235 2.835 -0.9119999999999999 7.74 0.183 10.734 0.309 6.309000000000001 0.27 13.923 0.084 35.451 0.807 27.471 0.921 21.021 -5.376 21.555 18.735Z" stroke-width="1"></path><path id="vector_40" fill="#bfeaff" d="M135.747 438.837c6.783 -0.03 6.492000000000001 -2.205 5.328 15.654 -0.18 2.763 0.153 2.439 -2.6550000000000002 2.295 -4.343999999999999 -0.22199999999999998 -31.329 0 -46.494 -0.51 -1.6740000000000002 -0.056999999999999995 -3.51 0.42899999999999994 -4.4190000000000005 -1.0050000000000001 -0.768 -1.2120000000000002 0.384 -6.486 -0.015 -12.020999999999999 -0.048 -0.654 -0.8430000000000001 -3.51 -0.201 -4.2059999999999995 1.509 -1.6350000000000002 9.801 -0.264 11.994 -0.23399999999999999 0.30300000000000005 0.003 0.048 0.192 36.462 0.026999999999999996Z" stroke-width="1"></path><path id="vector_41" fill="#ffc8b2" d="M114.93 291.14369999999997c-0.24 20.6253 0.726 39.8223 0.723 53.20230000000001 -0.003 12.504000000000001 -1.047 25.113 -0.8699999999999999 37.580999999999996 0.07500000000000001 5.364 0.63 10.767 0.393 16.131 -0.189 4.308 0.138 1.905 -39.927 2.88 -1.4969999999999999 0.036000000000000004 -5.721 1.287 -7.032 0.033 -1.329 -1.269 -1.065 -114.97800000000001 -0.9450000000000001 -115.401 0.627 -2.169 1.6470000000000002 -1.9743 4.053 -2.2622999999999998 7.665000000000001 -0.9119999999999999 24.939 -0.10500000000000001 32.646 -0.393 2.517 -0.093 7.164 -1.2777 9.576 -0.4677 1.884 0.633 1.482 -0.2223 1.3800000000000001 8.6907l0.003 0.006Z" stroke-width="1"></path><path id="vector_42" fill="#bfeaff" d="M108.579 332.32500000000005c0.042 0.069 0.237 47.709 0.042 55.539 -0.12 4.824 0.966 5.535 -3.978 5.529 -28.98 -0.042 -28.074 0.927 -28.971 0.357 -2.133 -1.35 -0.357 -16.683 -0.9239999999999999 -16.683 0 -1.068 -0.5609999999999999 -43.749 0.159 -44.496 0.651 -0.678 3.0540000000000003 -0.27 4.032 -0.30300000000000005 8.334 -0.29100000000000004 16.653 -0.21000000000000002 24.974999999999998 -0.585 1.7999999999999998 -0.081 3.7800000000000002 -0.792 4.665 0.642Z" stroke-width="1"></path><path id="vector_43" fill="#bfeaff" d="M108.387 289.42499999999995c0.5940000000000001 5.922 -0.048 30.387 -0.11099999999999999 30.936 -0.22799999999999998 1.9860000000000002 0.273 1.53 -0.9179999999999999 2.337 -1.278 0.867 -6.9959999999999996 -0.22799999999999998 -6.9959999999999996 0.063 -19.038 0 -23.283 1.857 -25.23 0.33 -1.374 -1.08 -0.393 -8.169 -0.43499999999999994 -9.933 -0.10500000000000001 -4.35 -0.168 -8.7 -0.192 -13.049999999999999 -0.009000000000000001 -1.6800000000000002 -1.203 -8.346 0 -9.858 1.641 -2.064 27.621000000000002 0.387 33.879 -0.8280000000000001l0.003 0.003Z" stroke-width="1"></path><path id="vector_44" fill="#000000" d="M568.188 296.42400000000004c-2.235 -8.616 -3.495 -17.289 -5.151 -26.022 -8.07 -42.696 -8.574 -40.013999999999996 -14.619 -69.276 -0.648 -3.156 -0.966 -8.790000000000001 -3.936 -10.671 -3.117 -1.971 -9.456 -0.897 -12.981 -0.648 -1.6949999999999998 0.11699999999999999 -51.617999999999995 1.8900000000000001 -68.664 0.558 -18.516 -1.446 -37.176 0.621 -55.69799999999999 0.09 -9.189 -0.27 -18.558 -1.0499999999999998 -27.732 -0.8819999999999999 -4.224 0.069 -8.408999999999999 0.366 -12.642000000000001 0.276 -9.465 -0.198 -10.443 1.317 -11.966999999999999 0.585 -2.517 -1.2120000000000002 0.243 -11.814 -0.40800000000000003 -24.498 -0.516 -10.059000000000001 1.125 -20.796 -1.068 -30.669000000000004 0.399 -0.5249999999999999 -0.11699999999999999 -2.8409999999999997 -0.5369999999999999 -3.2729999999999997 -0.8879999999999999 -0.9239999999999999 -0.903 -0.34500000000000003 -17.283 -0.43499999999999994 -11.565 -0.063 -9.201 -0.186 -12.36 15.861 -7.430999999999999 37.755 -5.688 39.900000000000006 -8.120999999999999 41.772 -2.358 1.827 -7.988999999999999 -0.21299999999999997 -35.784000000000006 -0.405 -22.659 -0.159 -15.144 2.613 -64.878 -34.686 -4.776 -3.585 -9.471 -8.966999999999999 -15.908999999999999 -7.101 -5.499 1.593 -10.704 7.308 -15.489 10.803 -114.48899999999999 83.526 -125.85000000000001 92.41199999999999 -159.55197 118.21200000000002 -7.266 5.562 -11.408999999999999 7.101 -5.826 15.690000000000001 0.9810000000000001 1.4969999999999999 3.351 5.679 5.826 4.722 -0.165 -0.261 2.757 -0.9299999999999999 3.3839999999999995 -1.2120000000000002C30.599999999999998 293.553 34.458 289.68 39.567 285.867c5.004 -3.738 6.327 -6.204000000000001 6.465 -1.62 0.153 4.901999999999999 0.8400000000000001 180.06 0.663 193.812 0 0.777 -22.52394 0.75 503.967 -0.159 1.068 0 1.935 -0.897 1.908 -1.965 -0.483 -20.741999999999997 0.063 -102.90899999999999 0.012 -144.609 -0.021 -19.982999999999997 -1.5630000000000002 -23.313 0.9510000000000001 -24.672 1.923 -1.041 10.23 0.615 13.943999999999999 -0.33 4.674 -1.191 1.653 -6.2459999999999996 0.7020000000000001 -9.897l0.009000000000000001 -0.003Zm-240.954 -153.576c0.483 -2.763 0.192 -6.6240000000000006 2.82 -7.836 1.584 -0.732 5.439 0 7.224 0 9.465 -0.015 11.862 -0.744 12.725999999999999 -0.026999999999999996 1.536 1.269 0.255 3.888 0.798 3.888 0 1.8479999999999999 0.41400000000000003 2.904 -0.909 3.7560000000000002 -1.371 0.8819999999999999 -14.613000000000001 -0.015 -16.614 3.303 -1.3920000000000001 2.3040000000000003 0.903 6.2459999999999996 -0.18 8.436 -0.44099999999999995 0.8879999999999999 -7.2989999999999995 1.9020000000000001 -8.120999999999999 1.242 -0.933 -0.759 1.9860000000000002 -11.25 2.253 -12.759l0.003 -0.003Zm23.732999999999997 7.899c-0.042 2.427 0.18 2.565 -1.722 3.2880000000000003 -1.8479999999999999 0.7020000000000001 -4.638 0.477 -6.5969999999999995 0.5369999999999999 -1.452 0.048 -4.431 0.612 -5.775 -0.033 -1.806 -0.8759999999999999 -1.455 -2.985 -1.6620000000000001 -4.9559999999999995l0.048 -0.012c0 -2.9939999999999998 1.083 -2.439 3.6959999999999997 -2.682 4.716 -0.44099999999999995 10.32 -2.682 11.844 -1.047 0.786 0.8400000000000001 0.192 3.882 0.171 4.9079999999999995l-0.003 -0.003Zm-27.207 10.932c0.759 -3.93 1.53 -3.303 5.349 -3.7230000000000003 2.937 -0.33 5.076 -1.044 5.832 0.765 0.762 1.83 0.711 5.856 -1.143 6.618 -0.8759999999999999 0.357 -3.7829999999999995 -0.18 -4.812 -0.18 -4.614 0.006 -6.1979999999999995 1.536 -5.226 -3.4799999999999995ZM318.417 195c0.324 -2.241 0.012 -4.1850000000000005 2.343 -4.848000000000001 5.901 -1.6740000000000002 2.778 9.009 2.262 8.961 -5.045999999999999 -0.44099999999999995 -5.226 0.14700000000000002 -4.6049999999999995 -4.1129999999999995Zm-1.242 9.312000000000001c0.056999999999999995 -1.578 0.29700000000000004 -2.109 1.5870000000000002 -2.661 2.937 -1.254 6.438 1.8479999999999999 7.7669999999999995 -2.166 0.654 -1.992 1.068 -8.907 0.069 -10.74 -1.302 -2.3760000000000003 -5.715 -0.006 -6.963000000000001 -1.419 -0.8459999999999999 -0.966 0.9810000000000001 -7.334999999999999 1.191 -8.690999999999999 0.378 -2.46 0.168 -9.279 2.322 -10.713000000000001 1.6830000000000003 -1.116 8.094 0.27 10.176 0.18 4.434 -0.18 4.275 -3.5490000000000004 4.343999999999999 -7.32 0.069 -4.212 0.9299999999999999 -3.255 5.004 -3.411 8.376 -0.324 7.68 -1.9500000000000002 8.271 0.792 0.44099999999999995 2.04 0.10500000000000001 20.667 0.048 22.521 -0.081 2.502 0.771 7.1370000000000005 -0.5940000000000001 9.258 -1.032 1.608 -8.079 0.9510000000000001 -10.497 0.9450000000000001 -3.1980000000000004 -0.012 -8.223 -1.4969999999999999 -9.48 2.226 -0.654 1.959 -0.8400000000000001 9.156 1.1099999999999999 9.222 3.8520000000000003 0.132 19.236 0.44099999999999995 19.236 0.44099999999999995s0.5549999999999999 3.441 0.012 3.594c-2.598 0.744 -5.757 0.132 -8.406 0.21000000000000002 -25.250999999999998 0.7020000000000001 -25.293 0.22799999999999998 -25.203 -2.268h0.006Zm33.549 -6.851999999999999c0 2.358 0.276 2.2199999999999998 -1.977 2.586 -1.2269999999999999 0.198 -9.600000000000001 -0.44699999999999995 -12.234000000000002 -0.168 -1.383 0.14400000000000002 -2.886 0.042 -3.2489999999999997 -1.101 -2.577 -8.154 3.303 -5.148 7.3260000000000005 -5.121 2.4000000000000004 0.021 5.274 -0.381 7.638 0.026999999999999996 2.778 0.483 2.496 0.738 2.496 3.7769999999999997ZM37.902 282.291c-4.086 3.0629999999999997 -7.755 7.659 -12.32397 9.975000000000001 -2.46 1.248 -2.4749999999999996 0.639 -4.2330000000000005 -1.572 -0.786 -0.9930000000000001 -4.011 -4.323 -3.888 -5.418 0.165 -1.5150000000000001 178.95596999999998 -132.159 180.17097 -132.993 2.445 -1.677 2.9699999999999998 -2.496 5.529 -0.786 5.093999999999999 3.399 15.564 10.841999999999999 23.298000000000002 16.746 39.057 29.784000000000002 60.324 43.887 62.619 45.771 -1.419 1.6680000000000001 -8.184000000000001 5.025 -10.113 4.473000000000001 -2.676 -0.765 -6.186 -4.515 -13.686 -10.215 -4.1850000000000005 -3.1769999999999996 -8.883 -5.577 -13.089000000000002 -8.727 -21.884999999999998 -16.392000000000003 -26.835 -18.198 -39.195 -28.614 -2.847 -2.406 -7.266 -7.9830000000000005 -11.091000000000001 -8.678999999999998 -4.707 -0.855 -10.290000000000001 6.735 -13.647000000000002 9.45 -4.047 3.261 -8.667 5.79 -12.812999999999999 8.928 -4.962 3.738 -9.741 7.473000000000001 -14.943 10.89 -4.227 2.778 -7.923 6.1499999999999995 -12.015 9.093 -0.069 0.048 -18.654 12.725999999999999 -28.695 20.205000000000002 -0.069 0.048 -53.61 42.312 -68.313 52.581 -4.437 3.096 -9.222 5.646 -13.566 8.892h-0.006Zm343.218 7.976999999999999c-3.282 3.8609999999999998 -2.1029999999999998 4.086 -7.281000000000001 0.07500000000000001 -24.098999999999997 -18.666 0.153 -0.276 -38.685 -28.116 -20.688 -14.828999999999999 -39.255 -32.814 -44.592 -32.373000000000005 -6.561 0.5369999999999999 -17.268 16.041 -74.013 53.903999999999996 -10.224 6.815999999999999 -7.884 11.850000000000001 -14.952 4.239 -4.239 -4.569 -3.978 -3.921 22.149 -22.575000000000003 36.147 -25.808999999999997 54.711 -44.448 67.362 -48.21 7.14 1.77 12.711 8.01 18.687 12.006 2.949 1.971 36.087 26.628 57.429 42.855000000000004 18.884999999999998 14.373000000000001 19.451999999999998 11.661 13.895999999999999 18.195Zm-28.013999999999996 35.949c0.44099999999999995 73.758 -0.372 16.433999999999997 -0.318 83.505 0 2.04 1.0739999999999998 7.857000000000001 -0.711 9.195 -0.759 0.573 -1.9860000000000002 0.738 -3.3720000000000003 0.7020000000000001 -2.496 -0.048 -16.998 -0.324 -18.936 -0.405 -2.607 -0.10500000000000001 -2.391 -1.125 -2.6189999999999998 -5.37 -0.5640000000000001 -10.788 0.387 -0.021 -0.11099999999999999 -107.21100000000001 -0.07500000000000001 -17.514 4.2059999999999995 -39.858 -36.135 -39.96 -13.640999999999998 -0.036000000000000004 -29.337 0.966 -36.603 14.591999999999999 -4.239 7.940999999999999 0.21899999999999997 45.159000000000006 -1.242 98.66399999999999 -0.792 28.779 0.9930000000000001 36.858 -1.047 39.126 -6.141 0.10500000000000001 -18.405 0.096 -31.11 0.063 0.006 -11.25 0.5940000000000001 -110.21699999999998 0.153 -125.286 -0.063 -1.9860000000000002 -0.29700000000000004 -6.933 0.51 -8.61 1.2120000000000002 -2.538 22.989 -15.350999999999999 54.705 -40.326 3.963 -3.1229999999999998 8.568 -9.243 13.475999999999999 -10.656 5.025 -1.455 19.599 15.213 48.006 34.371 2.667 1.794 5.157 3.708 7.638 5.742 1.6260000000000001 1.338 7.2330000000000005 3.7829999999999995 7.92 5.709 0.138 0.384 -0.41400000000000003 1.935 -0.46799999999999997 2.3850000000000002 -0.309 2.556 0 0 0.261 43.772999999999996l0.003 -0.003Zm-29.295 69.492c-0.807 7.0169999999999995 0.5369999999999999 14.102999999999998 0.015 21.087 -0.243 3.213 -0.75 2.469 -4.2059999999999995 2.46 -1.179 0 -3.522 0.46799999999999997 -4.377000000000001 -0.6000000000000001 -0.627 -0.777 -1.311 -47.259 -0.654 -50.79 0.558 -3.012 -0.501 -4.8660000000000005 -0.684 -7.857000000000001 -0.42000000000000004 -6.75 0.489 -44.510999999999996 -1.62 -46.746 -1.9980000000000002 -2.1149999999999998 -9.417 -0.516 -9.444 -0.861 -7.734 0 -15.482999999999999 0.41400000000000003 -23.208 0.6960000000000001 -3.2520000000000002 0.11699999999999999 -8.562000000000001 -0.909 -11.562000000000001 0.18 -3.186 1.1520000000000001 -2.259 4.371 -2.157 7.176 0.6960000000000001 19.722 -0.43499999999999994 26.988 -0.22799999999999998 75.081 0.07500000000000001 17.826 0.8190000000000001 22.41 -0.28200000000000003 23.424 -0.42899999999999994 0.393 -7.509 0.273 -8.370000000000001 0.048 -0.621 -1.08 -1.1099999999999999 -127.905 -1.104 -127.974 1.0499999999999998 -17.763 19.080000000000002 -21.465 33.888 -21.333 14.16 0.123 31.338 3.0329999999999995 33.267 19.839000000000002 2.8739999999999997 24.996000000000002 0.045 101.82 0.726 106.17Zm-0.069 48.453c0.20700000000000002 4.962 0 4.143 -4.707 4.149 -9.105 0.012 -40.428000000000004 -0.042 -54.504 0.372 -3.993 0.11699999999999999 -4.722 1.041 -4.800000000000001 -2.757 -0.012 -0.8699999999999999 -1.104 -7.023000000000001 0.684 -6.963000000000001 1.794 0.063 3.537 -0.489 5.343 -0.489 8.349 1.434 53.871 -1.7309999999999999 56.346000000000004 -0.6000000000000001 2.322 1.068 1.536 3.702 1.6380000000000001 6.288Zm8.504999999999999 12.609000000000002c0.036000000000000004 0.771 0.765 4.005 0.186 4.482 -1.191 0.978 -71.826 0.516 -80.76899999999999 0.23399999999999999 -0.006 -0.21299999999999997 -0.22799999999999998 -3.729 -0.021 -3.7439999999999998 -0.366 -4.143 -0.978 -5.472 3.399 -5.763 18.807000000000002 -1.254 66.96000000000001 -1.2269999999999999 74.076 -1.041 4.191 0.11099999999999999 2.958 2.1029999999999998 3.1289999999999996 5.832Zm-21.444 -97.43099999999998c-1.317 2.508 -5.619 2.187 -5.550000000000001 6.63 0.084 4.797 4.854 3.399 5.886 6.2250000000000005 1.02 2.778 -0.8340000000000001 15.102 0.573 41.022 0.43499999999999994 7.974 2.529 5.9910000000000005 -4.122 6.161999999999999 -36.974999999999994 0.942 -36.21 1.137 -36.99 0.8130000000000001 -1.896 -0.40800000000000003 -1.407 -8.196000000000002 -1.446 -10.644 -0.43499999999999994 -23.381999999999998 -0.6960000000000001 -77.385 -0.669 -83.313 0.012 -2.469 -1.014 -9.045 1.026 -9.959999999999999 2.1719999999999997 -0.978 7.0649999999999995 0.51 16.848 -0.36 5.775 -0.51 11.697 -0.243 17.502 -0.30300000000000005 1.482 -0.021 4.7669999999999995 -0.714 5.904 0.375 1.131 1.077 1.284 42.885 1.0379999999999998 43.353Zm5.466 74.634c-0.8819999999999999 1.191 -39.753 1.365 -43.455 1.428 -3.3360000000000003 0.056999999999999995 -3.798 0.861 -3.93 -2.364 -0.084 -2.151 -0.387 -5.2589999999999995 0.11099999999999999 -7.3020000000000005 0.6000000000000001 -2.502 -0.159 -2.211 19.875 -2.5229999999999997 27.435 -0.41400000000000003 27.063000000000002 -2.862 27.063000000000002 2.9699999999999998 -0.27 0.026999999999999996 1.311 6.474 0.336 7.791Zm-6.603 -70.68299999999999c1.593 -0.627 2.88 0.20700000000000002 2.862 2.1029999999999998 1.641 5.2170000000000005 -9.318 0.44699999999999995 -2.862 -2.1029999999999998ZM49.190999999999995 279.663c0.903 -1.8479999999999999 1.0739999999999998 1.371 70.40700000000001 -53.727 9.318 -7.41 33.978 -24.747 41.565 -30.096 35.412 -24.945 30.903 -23.183999999999997 39.974999999999994 -29.688000000000002 12.498000000000001 9.432 24.444 19.473 37.521 28.179000000000002 1.8119999999999998 1.206 37.299 26.409000000000002 37.394999999999996 27.137999999999998 0.30300000000000005 2.31 -81.237 58.364999999999995 -81.60300000000001 62.150999999999996 -0.28200000000000003 2.985 3.6270000000000002 6.237 5.523 8.148 2.763 2.7720000000000002 4.0649999999999995 5.823 8.106 3.2940000000000005 2.646 -1.6620000000000001 6.48 -6.954000000000001 9.546 -7.314 -0.34500000000000003 2.883 -0.14400000000000002 119.049 -0.28200000000000003 131.358 -18.351 -0.063 -144.099 -0.567 -159.102 -0.35100000000000003 -8.295 0.11699999999999999 -8.658000000000001 0.855 -8.955 -1.887l-0.096 -137.20499999999998Zm188.916 189.75900000000001s0.11099999999999999 2.613 0.153 5.865c-30.128999999999998 1.1280000000000001 -187.779 0.255 -187.779 0.255 -0.46199999999999997 -13.274999999999999 -1.296 -48.087 -1.407 -50.04 -0.096 -1.758 0 -3.3360000000000003 0.621 -3.93 0.399 -0.378 207.627 0.942 214.42200000000003 1.0619999999999998 2.7510000000000003 1.254 1.419 5.529 1.578 8.169 0.10200000000000001 1.641 0.9299999999999999 3.729 -0.36 4.8180000000000005 -2.211 1.869 -6.369000000000001 -1.2269999999999999 -8.589 1.8119999999999998 -1.5870000000000002 2.166 0.069 6.714 -0.021 9.294 -0.15000000000000002 4.059 -2.859 1.839 -5.976 2.4749999999999996 -2.652 0.546 -2.565 1.758 -2.604 4.302 -0.015 1.104 0.723 7.382999999999999 -0.036000000000000004 8.052 -1.6260000000000001 1.44 -6.072 -0.186 -8.133 0.717 -2.862 1.26 -1.869 4.2330000000000005 -1.869 7.149Zm104.385 0.29700000000000004c0 0.615 0.036000000000000004 2.73 0.056999999999999995 5.268l-101.385 0.29700000000000004c0.048 -2.5229999999999997 0.081 -4.482 0.07500000000000001 -4.68 -0.138 -3.3660000000000005 -1.365 -5.3100000000000005 2.4659999999999997 -5.751 8.265 -0.9359999999999999 48.66 -0.675 56.973 -0.558 32.004 0.46199999999999997 32.757000000000005 -0.36 38.814 -0.28200000000000003 3.9240000000000004 0.056999999999999995 3 2.187 3 5.7059999999999995Zm3.159 5.2589999999999995c-0.063 -3.963 -0.159 -7.851 -0.36 -9.725999999999999 -0.5309999999999999 -5.079000000000001 -5.343 -4.227 -9.533999999999999 -3.8040000000000003 -0.33 -3.6870000000000003 0.05399999999999999 -7.452 -0.711 -11.097 1.593 -2.931 -5.853 -1.956 -6.666 -2.136 -1.908 -0.42000000000000004 -1.4609999999999999 0.11699999999999999 -1.758 -2.13 -0.375 -2.778 0.387 -5.727 -0.23399999999999999 -8.504999999999999 -0.675 -3.0329999999999995 -1.6260000000000001 -2.577 -4.5 -2.646 -3.0869999999999997 -0.07500000000000001 -2.613 -0.159 -2.481 -3.255 0.138 -3.186 -1.6260000000000001 -7.949999999999999 0.675 -9.237 1.584 -0.8759999999999999 23.781 -0.10200000000000001 28.323 0.138 2.724 0.14400000000000002 3.9989999999999997 -0.552 4.341 2.061 0.9119999999999999 6.851999999999999 0.063 14.532 0.738 42.089999999999996 0.026999999999999996 1.0050000000000001 0.10200000000000001 4.473000000000001 0.11099999999999999 8.223l-7.947 0.026999999999999996 0.003 -0.003Zm48.581999999999994 -79.521c0.066 -0.042 94.395 0.705 119.19899999999998 -0.084 0.621 1.782 0.621 11.781 -0.138 12.831 -1.5510000000000002 2.13 -5.79 1.041 -87.999 1.056 -32.321999999999996 0.006 -32.433 3.117 -32.232 -1.7309999999999999 0.44699999999999995 -11.058 -0.909 -11.016 1.173 -12.068999999999999l-0.003 -0.003Zm119.06099999999999 -5.082c-0.534 2.268 0.357 1.842 -8.424 1.6350000000000002 -26.945999999999998 -0.648 -110.727 1.311 -111.624 -0.28200000000000003 -0.516 -0.9239999999999999 -0.021 -12.227999999999998 -0.021 -12.227999999999998s107.39099999999999 -0.081 114.71100000000001 -0.22799999999999998c2.364 -0.048 4.266 -0.765 5.093999999999999 1.2269999999999999 0.738 1.785 0.7020000000000001 8.016 0.261 9.879000000000001l0.003 -0.003Zm-1.0050000000000001 -14.553c-57.264 0.804 -104.259 0.15000000000000002 -111.97500000000001 0.41400000000000003 -1.2120000000000002 0.033 -5.109 0.44099999999999995 -6.1979999999999995 -0.07500000000000001 -1.791 -0.8459999999999999 -1.866 -7.670999999999999 -1.185 -9.519 0.807 -2.178 1.026 -1.62 3.42 -1.536 2.364 0.09 4.776 -0.201 7.149 -0.255 0.069 0 109.17600000000002 -0.387 109.416 -0.186 0.8250000000000001 0.669 -0.026999999999999996 11.151 -0.627 11.157Zm-118.626 37.521c0.8519999999999999 -0.51 107.685 0.009000000000000001 119.688 -0.44399999999999995 0.056999999999999995 12.524999999999999 0.753 12.602999999999998 0.192 13.557 -0.5940000000000001 1.0050000000000001 -1.7009999999999998 0.849 -2.901 0.9570000000000001 -5.019 0.44699999999999995 -107.334 1.041 -107.412 1.047 -10.553999999999998 0.20700000000000002 -9.927 1.2120000000000002 -10.431 -1.929 -0.44699999999999995 -2.7990000000000004 -0.921 -12.096 0.8639999999999999 -13.187999999999999Zm-0.669 19.176000000000002c1.344 -1.827 9.99 -0.801 12.243000000000002 -0.8280000000000001 0.11099999999999999 -0.006 95.232 -0.318 108.366 -1.002 0.43499999999999994 1.161 -0.138 3.0540000000000003 -0.14700000000000002 4.1579999999999995 -0.069 8.928 1.1520000000000001 8.706 -1.0050000000000001 9.969 -3.165 1.839 -97.767 -0.5429999999999999 -111.684 0.522 -1.7639999999999998 0.138 -4.398 0.897 -6.141 0.615 -2.205 -0.366 -1.8119999999999998 0.27 -1.854 -2.544 -0.042 -2.331 -1.1219999999999999 -9.051 0.22799999999999998 -10.89h-0.006Zm-0.22799999999999998 22.941000000000003c0 -1.104 -0.6060000000000001 -5.163 0.18 -6.1080000000000005 0.615 -0.738 3.5730000000000004 -0.393 4.584 -0.45599999999999996 28.32 -1.7519999999999998 84.051 0.651 115.464 -0.6000000000000001 0.669 0.44999999999999996 0.44099999999999995 1.1880000000000002 0.5309999999999999 3.1289999999999996 0.11699999999999999 2.7 1.242 7.382999999999999 -1.041 8.781 -0.786 0.483 -119.523 1.572 -119.59199999999998 1.5030000000000001 -0.8459999999999999 -0.8130000000000001 0.026999999999999996 -6.252000000000001 -0.123 -6.252000000000001l-0.003 0.003Zm121.34100000000001 19.011 -121.40400000000001 0.366c-0.026999999999999996 -3.894 0.015 -7.3709999999999996 0.18 -7.899 0.6000000000000001 -1.881 0.387 -1.296 2.37 -1.6680000000000001 5.313 -0.984 102.777 -0.12 118.473 -1.866 0.63 2.0220000000000002 0.486 7.524 0.381 11.07v-0.003Zm3.06 -0.006c-0.42599999999999993 -11.600999999999999 0.11699999999999999 -38.301 -0.675 -89.061 -0.336 -21.884999999999998 -0.11099999999999999 -22.701 -2.688 -23.946 -2.577 -1.248 -32.412 0.10200000000000001 -50.43899999999999 -0.165 -2.868 -0.048 -70.263 -0.75 -72.495 1.041 -1.932 1.545 -0.9239999999999999 4.3919999999999995 -0.8819999999999999 25.395 0.084 37.089 -1.332 47.144999999999996 -0.11699999999999999 87.117l-7.632 0.021c0.29100000000000004 -18.633000000000003 0.9990000000000001 -57.833999999999996 1.116 -109.143 0.006 -2.061 -1.254 -9.767999999999999 0.165 -11.262 1.374 -1.434 54.114000000000004 -0.042 126.906 -1.056 2.6550000000000002 -0.033 5.364 -0.44999999999999996 8.01 -0.366 6.564 0.21299999999999997 4.281000000000001 -0.22199999999999998 5.721 108.597 0.042 3.4259999999999997 0.21299999999999997 8.631 0.34500000000000003 12.807l-7.334999999999999 0.021Zm9.975000000000001 -0.026999999999999996c-0.276 -13.518 0.8400000000000001 -47.067 -1.7999999999999998 -115.365 -0.43499999999999994 -11.112 -0.642 -9.015 -27.647999999999996 -8.487 -42.345 0.8190000000000001 -112.03799999999998 -0.10200000000000001 -114.74700000000001 1.131 -3.495 1.5990000000000002 -2.55 6.1080000000000005 -2.565 9.273 -0.096 21.843 -0.387 86.91 -0.5940000000000001 113.88900000000001l-22.823999999999998 0.063c-0.5549999999999999 -21.674999999999997 -0.369 -144.909 -0.249 -162.921 0.033 -4.923 -0.9990000000000001 -4.1850000000000005 17.109 -4.11 19.605 0.07500000000000001 30.866999999999997 -1.4129999999999998 67.623 -0.8340000000000001 69.62100000000001 1.101 106.161 -0.22799999999999998 107.256 -0.14400000000000002 -0.036000000000000004 0.8190000000000001 -0.618 126.93599999999999 0.933 167.43599999999998l-22.5 0.069h0.006Zm32.465999999999994 -171.138c-5.8919999999999995 0.14400000000000002 -202.785 0.8340000000000001 -202.98 0.5429999999999999 -0.546 -0.8130000000000001 0 -3.936 -0.048 -4.977 -0.552 -12.323999999999998 -0.9570000000000001 -13.884 -0.22799999999999998 -15.690000000000001 0.474 -1.173 -0.44699999999999995 -0.9990000000000001 0.9239999999999999 -0.972 1.242 0.033 9.629999999999999 7.356 13.895999999999999 10.512 1.479 1.092 5.889 4.452 8.748 3.591 2.577 -0.756 10.032 -9.567 6.045 -14.259 -2.5469999999999997 -2.997 -7.422000000000001 -6.099 -8.484 -6.918 -110.01599999999999 -84.438 -110.21699999999998 -79.989 -111.69899999999998 -83.13900000000001 2.979 -1.206 19.817999999999998 1.179 25.200000000000003 1.095 3.9720000000000004 -0.063 7.83 -0.23399999999999999 11.808 0.006 1.881 0.11699999999999999 11.100000000000001 -0.849 11.892 0.46799999999999997 0.7020000000000001 1.185 -1.833 9.573 -1.7009999999999998 12.951 0.165 4.26 4.701 3.3209999999999997 8.286 3.579 9.465 0.675 19.128 0.384 28.623 -0.261 10.14 -0.6960000000000001 -0.9119999999999999 -14.277000000000001 6.327 -15.945 6.471 -1.488 34.128 0.861 59.150999999999996 0.132 3.93 -0.11699999999999999 7.812 0.30300000000000005 11.733 0.255 52.602 -0.654 29.778 1.5030000000000001 108.63 -0.9810000000000001 2.283 -0.07500000000000001 6.093 -0.639 7.665000000000001 1.02 2.082 2.199 2.268 9.803999999999998 2.7510000000000003 12.716999999999999 2.235 13.683 0.9990000000000001 2.8409999999999997 7.601999999999999 34.929 9.024000000000001 43.821 5.937 33.855000000000004 8.823 46.503 0.9119999999999999 3.984 2.508 8.184000000000001 2.931 12.236999999999998 0.393 3.8249999999999997 -2.406 2.514 -5.8919999999999995 2.598l-0.003 0.006Z" stroke-width="1"></path><path id="vector_45" fill="#000000" d="M553.167 271.443c1.875 -0.156 2.529 2.406 2.061 3.771 -1.458 4.266 -6.867000000000001 1.116 -9.567 1.26 -1.53 0.081 -2.517 1.629 -4.383 1.518 -1.71 -0.10200000000000001 -4.047 -2.8259999999999996 -5.226 -2.715 -0.9390000000000001 0.09 -3.1020000000000003 2.5709999999999997 -4.5569999999999995 2.931 -5.439 1.335 -11.637 -1.047 -11.982000000000001 -6.639 0 -2.496 1.911 -1.863 3.0389999999999997 -0.669 1.47 1.5510000000000002 1.101 3.291 3.666 3.882 1.785 0.41100000000000003 4.941 0.22499999999999998 6.426 -0.9930000000000001 1.113 -0.9119999999999999 1.1640000000000001 -3.0749999999999997 2.262 -3.7829999999999995 2.4330000000000003 -1.572 2.592 1.332 4.122 2.745 2.13 1.965 2.3760000000000003 1.305 4.08 -0.11099999999999999 1.3980000000000001 -1.161 1.455 -2.04 3.33 -1.014 1.5510000000000002 0.849 1.593 2.667 4.038 1.908 1.194 -0.369 1.545 -1.995 2.688 -2.088l0.003 -0.003Z" stroke-width="1"></path><path id="vector_46" fill="#000000" d="M536.562 240.45600000000002c3.5250000000000004 2.0909999999999997 -2.811 6.096 -4.638 6.438 -7.904999999999999 1.488 -8.163 -0.657 -12.318 -0.9239999999999999 -1.5030000000000001 -0.096 -4.383 -0.72 -5.727 -0.5640000000000001 -2.349 0.273 -4.071 4.479 -10.794 2.4539999999999997 -1.1520000000000001 -0.34500000000000003 -2.928 -2.052 -3.867 -1.965 -1.3980000000000001 0.129 -3.399 2.721 -5.1419999999999995 3.171 -3.966 1.0230000000000001 -6.789 -1.5990000000000002 -9.849 -3.681 -4.254 5.052 -9.855 5.22 -15.447 2.268 -1.455 -0.768 -1.095 -1.044 -2.64 -0.723 -1.149 0.237 -2.331 1.5150000000000001 -3.771 1.791 -7.416 1.419 -15.105 -5.742 -13.131 -8.678999999999998 2.535 -3.771 3.1020000000000003 6.069000000000001 11.754000000000001 5.211 3.558 -0.354 2.952 -2.7030000000000003 5.28 -4.356 3.048 -2.163 2.613 1.524 4.038 3.219 1.722 2.0460000000000003 5.343 2.187 7.718999999999999 1.455 3.156 -0.972 2.4000000000000004 -3.1980000000000004 4.515 -4.812 2.247 -1.7159999999999997 3.666 1.407 5.454000000000001 2.724 2.439 1.794 4.86 2.757 7.574999999999999 0.807 2.136 -1.536 2.307 -5.691 5.349 -3.156 2.226 1.854 1.9380000000000002 3.465 5.454000000000001 3.204 6.708 -0.495 3.357 -3.3810000000000002 5.865 -4.281000000000001 1.8479999999999999 -0.663 2.073 1.23 3.4259999999999997 1.875 1.353 0.645 2.301 -0.009000000000000001 3.66 0.006 2.9699999999999998 0.033 9.606 3.12 14.229000000000001 -0.033 1.068 -0.729 1.29 -2.469 3.012 -1.4489999999999998h-0.006Z" stroke-width="1"></path><path id="vector_47" fill="#000000" d="M536.364 212.319c0.6900000000000001 1.083 0.05399999999999999 1.908 -0.6000000000000001 2.805 -1.911 2.628 -5.964 2.502 -12.54 3.7230000000000003 -2.136 -0.11099999999999999 -5.847 -3.267 -7.377000000000001 -3.0060000000000002 -1.311 0.22199999999999998 -1.6680000000000001 1.9740000000000002 -2.979 2.73 -3.435 1.98 -7.584 -1.2120000000000002 -10.431 -2.91 -8.76 8.790000000000001 -13.029 -0.273 -16.035 0.9179999999999999 -1.2000000000000002 0.474 -2.088 2.406 -3.5490000000000004 3.0060000000000002 -2.8259999999999996 1.158 -9.291 0.9059999999999999 -13.779 -2.613 -1.206 -0.9450000000000001 -6.342 -7.9350000000000005 -1.6350000000000002 -7.209 1.605 0.249 2.955 3.993 4.4399999999999995 4.9350000000000005 2.307 1.464 6.705 2.43 9.381 1.455 2.895 -1.056 3.897 -6.639 6.9479999999999995 -4.977 1.665 0.9059999999999999 2.109 5.235 7.601999999999999 4.281000000000001 4.851 -0.8430000000000001 3.5970000000000004 -4.053 5.742 -4.584 2.544 -0.627 4.653 3.483 6.9959999999999996 4.176 3.984 1.182 3.1020000000000003 -3.285 6.093 -3.9029999999999996 2.607 -0.5369999999999999 5.523 3.6510000000000002 8.466000000000001 3.708 2.379 0.045 6.861 -0.8400000000000001 8.886000000000001 -1.854 1.482 -0.744 2.916 -2.958 4.362 -0.681h0.009000000000000001Z" stroke-width="1"></path><path id="vector_48" fill="#000000" d="M503.316 269.994c3.357 -1.146 3.144 8.478 -3.7230000000000003 8.312999999999999 -3.0269999999999997 -0.07200000000000001 -5.178 -1.17 -7.92 -2.247 -3.096 -1.218 -1.869 0.243 -4.707 2.019 -2.391 1.4969999999999999 -5.292 1.1880000000000002 -7.851 0.34500000000000003 -2.052 -0.678 -4.5329999999999995 -3.24 -6.305999999999999 -2.736 -1.3980000000000001 0.399 -1.7429999999999999 3.7110000000000003 -7.416 4.335 -3.516 0.387 -5.3069999999999995 -1.299 -8.232000000000001 -2.6189999999999998 -2.8169999999999997 -1.272 -1.875 0.504 -4.35 2.136 -2.487 1.641 -6.444000000000001 1.545 -9.216000000000001 0.801 -2.481 -0.669 -4.059 -2.94 -6.2669999999999995 -3.6750000000000003 -2.355 -0.783 -3.048 1.407 -5.364 2.439 -2.55 1.137 -6.449999999999999 1.614 -9.147 0.723 -1.929 -0.639 -3.3720000000000003 -3.303 -5.01 -3.186 -0.9390000000000001 0.069 -2.4419999999999997 1.7009999999999998 -3.3420000000000005 2.055 -3.4079999999999995 1.335 -8.934000000000001 0.402 -10.692 -2.46 -0.585 -0.9510000000000001 -1.467 -4.584 0.9870000000000001 -3.984 2.247 0.5489999999999999 1.407 3.6390000000000002 4.68 3.3779999999999997 2.8739999999999997 0.903 4.986 -0.8370000000000001 7.176 -2.379 2.643 -1.857 2.976 -1.56 4.914 0.849 2.4989999999999997 3.1049999999999995 6.897 3.261 10.401 0.9239999999999999 1.7009999999999998 -1.134 2.301 -4.143 4.425000000000001 -4.089 2.448 0.063 3.963 6.404999999999999 11.283000000000001 6.051 3.57 -0.171 3.9240000000000004 -1.419 5.472 -4.314 2.9939999999999998 -5.589 4.0680000000000005 0.567 7.286999999999999 2.4749999999999996 5.01 2.973 8.301 -0.504 11.271 -4.1579999999999995 3.6870000000000003 -4.536 3.507 1.524 6.63 3.144 1.7429999999999999 0.903 5.163 1.7639999999999998 6.984 0.615 1.923 -1.215 2.448 -4.089 4.176 -5.589 2.847 1.545 4.074 4.176 7.553999999999999 4.949999999999999 7.485 1.6620000000000001 3.6270000000000002 -3.2009999999999996 6.300000000000001 -4.1160000000000005h0.003Z" stroke-width="1"></path><path id="vector_49" fill="#000000" d="M442.66200000000003 209.38800000000003c4.149 0.807 -2.271 7.284 -3.591 8.367 -0.783 0.645 -2.316 1.014 -4.17 0.978 -2.241 0.132 -3.6750000000000003 -1.968 -5.589 -2.088 -1.7639999999999998 -0.11099999999999999 -2.121 0.96 -3.57 1.959 -4.278 2.949 -6.882 0.8130000000000001 -10.83 -1.296 -2.589 -1.383 -0.723 -1.431 -3.234 0.27 -6.488999999999999 4.3950000000000005 -8.292 3.3360000000000003 -14.814 0.255 -1.971 -0.9299999999999999 -1.2449999999999999 -1.119 -2.916 -0.29700000000000004 -1.185 0.5820000000000001 -2.0460000000000003 2.187 -3.489 2.793 -8.187000000000001 3.444 -18.213 -6.3629999999999995 -14.475000000000001 -9.714 2.4749999999999996 -2.2199999999999998 3.0389999999999997 3.846 5.88 5.472 3.792 2.1719999999999997 7.563 1.428 10.236 -1.827 3.309 -4.026 3.159 -2.616 6.342 0.201 2.592 2.295 6.555 3.042 9.615 1.275 1.5030000000000001 -0.867 2.31 -2.64 3.7350000000000003 -3.495 2.226 -1.332 2.3280000000000003 -0.489 4.314 1.1099999999999999 3.9960000000000004 3.216 6.093 3.963 9.927 0.11699999999999999 1.62 -1.6260000000000001 1.59 -2.685 3.894 -1.536 1.62 0.807 2.241 2.532 4.329000000000001 2.895 4.224 0.735 5.1419999999999995 -6.072 8.403 -5.439h0.003Z" stroke-width="1"></path><path id="vector_50" fill="#000000" d="M431.646 54.138c0.96 1.956 -0.8699999999999999 2.145 -2.37 2.634 -5.3549999999999995 1.7429999999999999 -10.884 2.682 -16.398 3.702 -17.79 3.291 -12.366 16.668 -31.476000000000003 18.357 -1.509 0 -2.991 -1.248 -1.6350000000000002 -2.8409999999999997 0.792 -0.9299999999999999 4.302 -0.933 5.571 -1.2329999999999999 10.557 -2.508 11.175 -13.631999999999998 24.965999999999998 -17.088 5.529 -1.3860000000000001 11.175 -2.238 16.695 -3.708 1.317 -0.35100000000000003 3.774 -1.5990000000000002 4.647 0.18v-0.003Z" stroke-width="1"></path><path id="vector_51" fill="#000000" d="M422.727 237.20999999999998c3.6690000000000005 -0.42599999999999993 1.407 4.653 -0.5309999999999999 5.604 -2.007 0.984 -4.143 1.566 -6.5489999999999995 1.758 -2.811 -0.489 -2.508 1.065 -4.992 2.019 -2.73 1.0499999999999998 -5.811 0.324 -8.211 -1.056 -3.3449999999999998 -1.923 -1.7639999999999998 -0.753 -4.997999999999999 1.302 -2.289 1.455 -5.253 1.806 -7.857000000000001 1.125 -2.061 -0.54 -5.466 -4.311 -7.218 -4.275 -0.5940000000000001 0.012 -2.028 1.377 -2.4749999999999996 1.605 -3.3600000000000003 1.7129999999999999 -7.782 2.3520000000000003 -11.478 -0.22199999999999998 -2.883 -2.007 -2.061 -1.7309999999999999 -5.651999999999999 -0.489 -14.292000000000002 4.941 -19.488 -8.73 -12.870000000000001 -5.604 2.805 1.326 3.9509999999999996 3.213 7.425000000000001 3.1289999999999996 3.4739999999999998 -0.084 5.529 -1.815 8.424 -3.213 2.7030000000000003 -1.305 1.968 -0.264 3.522 1.7639999999999998 1.8900000000000001 2.4659999999999997 3.8040000000000003 2.8409999999999997 6.783 2.0340000000000003 3.171 -0.861 3.8249999999999997 -2.6189999999999998 6.087 -4.626 2.538 1.329 3.7230000000000003 3.93 6.321000000000001 5.391 2.652 1.491 5.739 1.287 8.19 -0.663 1.4040000000000001 -1.119 3.186 -5.454000000000001 5.199 -4.302 1.9020000000000001 1.089 1.116 3.4770000000000003 3.8249999999999997 4.431 1.116 0.393 3.3000000000000003 0.591 4.323 -0.138 0.99 -0.705 0.333 -1.653 1.137 -2.4539999999999997 2.139 -2.127 2.715 0.273 5.418 0.29100000000000004 0.978 0.006 2.877 -0.591 3.75 -1.158 0.804 -0.522 1.455 -2.1479999999999997 2.427 -2.262v0.009000000000000001Z" stroke-width="1"></path><path id="vector_52" fill="#000000" d="M420.75 68.595c2.916 1.884 -9.045 8.271 -10.788 9.863999999999999 -4.398 4.014 -6.375 11.793 -12.716999999999999 13.119 -1.992 0.41700000000000004 -3.978 1.1099999999999999 -5.487 0.78 -5.493 -0.249 -10.05 -1.44 -13.736999999999998 3.3360000000000003 -3.6870000000000003 4.776 -4.107 8.742 -10.017 11.408999999999999 -5.583 2.517 -12.24 2.4210000000000003 -17.294999999999998 6.1080000000000005 -5.25 3.8280000000000003 -3.846 14.357999999999999 -7.329000000000001 11.690999999999999 -0.44099999999999995 -0.339 0.153 -4.494 0.42000000000000004 -5.493 3.6210000000000004 -13.584 10.553999999999998 -10.658999999999999 21.342 -14.799 9.084 -3.489 6.849 -7.077 11.175 -12.048 4.872 -5.601 10.383 -3.045 16.848 -3.7649999999999997 7.341 -0.8160000000000001 8.303999999999998 -6.276 12.753 -11.076 1.845 -1.992 11.649000000000001 -11.178 14.835 -9.120000000000001l-0.003 -0.006Z" stroke-width="1"></path><path id="vector_53" fill="#000000" d="M371.52299999999997 77.604c2.055 -0.46799999999999997 2.901 0.771 2.184 2.502 -0.387 0.9299999999999999 -2.649 2.238 -3.3420000000000005 3.1229999999999998 -1.7489999999999999 2.229 -4.199999999999999 7.644 -6.141 10.107000000000001 -8.124 10.290000000000001 -25.131 0.42899999999999994 -27.201 30.599999999999998 -0.081 1.2000000000000002 0.5609999999999999 2.3280000000000003 -0.9870000000000001 2.862 -0.255 0.08700000000000001 -1.3860000000000001 0.5249999999999999 -1.371 -0.153 0.026999999999999996 -1.3860000000000001 -0.6900000000000001 -2.694 -0.5640000000000001 -4.128 3.522 -21.942 7.190999999999999 -22.049999999999997 19.887 -26.961 8.892 -3.4379999999999997 7.446000000000001 -3.492 11.952 -11.187000000000001 1.095 -1.869 3.219 -6.228 5.583 -6.765Z" stroke-width="1"></path><path id="vector_54" fill="#000000" d="M347.1 175.65300000000002c0.672 1.452 0.744 7.074 -0.255 8.52 -1.377 1.992 -3.9989999999999997 1.2120000000000002 -6.2669999999999995 1.2329999999999999 -2.847 0.026999999999999996 -5.556 -0.026999999999999996 -8.403 -0.261 -2.226 -0.183 -5.8950000000000005 0.5249999999999999 -7.224 -1.296 -1.1520000000000001 -1.578 -1.356 -7.389 -0.309 -8.961 1.806 -2.718 14.523 -2.151 16.826999999999998 -1.893 2.568 0.28800000000000003 4.857 0.9810000000000001 5.631 2.658Zm-2.889 1.758c-0.534 -1.218 -1.7159999999999997 -0.909 -4.35 -1.116 -2.598 -0.20400000000000001 -11.094 -2.226 -12.765 0.11699999999999999 -0.30000000000000004 0.42299999999999993 0 5.04 0.5369999999999999 5.583 1.0379999999999998 1.0499999999999998 6.894 0.261 8.34 0.366 1.9860000000000002 0.14400000000000002 4.923 1.026 6.846 0.51 1.314 -0.35100000000000003 1.629 -0.618 1.6889999999999998 -1.3980000000000001 0.036000000000000004 -0.471 0.12 -3.1109999999999998 -0.29700000000000004 -4.062Z" stroke-width="1"></path><path id="vector_55" fill="#000000" d="M316.494 297.1263c0.243 2.055 0.8430000000000001 6.425700000000001 -0.633 8.0247 -1.797 1.944 -6.465 1.026 -8.817 1.116 -13.145999999999999 0.507 -14.312999999999999 0.9179999999999999 -14.571000000000002 -4.371 -0.081 -1.6470000000000002 -1.026 -5.8527000000000005 -0.22199999999999998 -7.2987 1.056 -1.896 16.773 -1.041 19.473 -0.8819999999999999 3.096 0.183 4.38 0.11099999999999999 4.7700000000000005 3.411Zm-3.213 4.4187c2.187 -6.9207 -2.73 -5.3366999999999996 -7.176 -5.0787 -10.47 0.603 -10.617 -1.305 -11.712 0.771 -0.42899999999999994 0.8130000000000001 -0.009000000000000001 5.0877 0.44099999999999995 5.6396999999999995 1.092 1.341 3.7649999999999997 0.546 14.484000000000002 0.29700000000000004 2.7510000000000003 -0.063 3.255 0.618 3.963 -1.629Z" stroke-width="1"></path><path id="vector_56" fill="#000000" d="M313.758 284.883c4.536 7.404 -5.2379999999999995 5.286 -9.81 5.2379999999999995 -9.09 -0.093 -11.946000000000002 1.014 -12.261 -1.803 -0.033 -0.30000000000000004 -0.5609999999999999 -9.815999999999999 -0.243 -10.248 1.512 -2.061 17.565 -0.9359999999999999 22.314 6.813Zm-16.584 2.145c4.854 -0.003 9.774000000000001 0.663 14.622 0.393 -2.0669999999999997 -5.922 -10.251 -6.555 -15.386999999999999 -7.074 -3.543 0 -2.895 0.261 -2.586 3.798 0.255 2.901 0.585 2.886 3.351 2.883Z" stroke-width="1"></path><path id="vector_57" fill="#000000" d="M304.629 396.27600000000007c-0.11399999999999999 5.235 -0.018000000000000002 4.743 -7.041 4.278 -4.413 -0.29100000000000004 -20.424 2.949 -21.177 -3.0809999999999995 0.573 -1.518 -0.9630000000000001 -5.795999999999999 -0.41400000000000003 -68.304 0.036000000000000004 -3.9720000000000004 0.504 -5.835 4.914 -5.6579999999999995 6.279 0.249 19.392000000000003 -0.75 21.198 0.393 1.056 0.669 1.428 1.7639999999999998 1.53 2.8289999999999997 0.024 0.255 1.158 61.794 0.99 69.549v-0.006Zm-3.387 1.044c1.479 -1.506 0.399 -8.493 0.33 -10.251 -0.5880000000000001 -15.336 -0.44699999999999995 -30.473999999999997 -0.6960000000000001 -45.807 -0.318 -19.548000000000002 2.937 -13.899000000000001 -17.289 -14.337 -0.9359999999999999 -0.021 -4.155 -0.879 -4.949999999999999 -0.159 -0.6930000000000001 0.63 0.5489999999999999 11.013 0.765 60.108000000000004 0.006 1.311 -0.591 9.201 0.387 10.071000000000002 1.6560000000000001 1.4729999999999999 8.154 0.312 10.236 0.28200000000000003 1.7159999999999997 -0.024 10.218 1.104 11.214 0.09l0.003 0.003Z" stroke-width="1"></path><path id="vector_58" fill="#000000" d="M288.267 298.19399999999996c0.08700000000000001 3.1020000000000003 1.2000000000000002 6.803999999999999 -2.322 8.064 -2.7510000000000003 0.984 -7.515 0.43499999999999994 -10.565999999999999 0.33 -5.178 -0.17400000000000002 -11.433 1.3920000000000001 -12.384 -2.754 -0.201 -0.8819999999999999 -0.324 -6.5009999999999994 0.6060000000000001 -8.427 1.344 -2.787 4.836 -2.13 12.606 -1.917 2.82 0.078 6.471 -0.2883 9.195 0.3447 2.832 0.657 2.79 1.6053000000000002 2.868 4.3563l-0.003 0.003Zm-2.979 5.253c1.056 0.015 1.248 -6.045 0.627 -6.708 -1.1640000000000001 -1.242 -8.265 -0.42899999999999994 -9.906 -0.46199999999999997 -1.881 -0.036000000000000004 -8.943 -1.0443 -10.161 0.4767 -0.717 0.8939999999999999 0.261 5.6103000000000005 0.387 6.798299999999999 0.07500000000000001 0 18.267000000000003 -0.11699999999999999 19.053 -0.10500000000000001Z" stroke-width="1"></path><path id="vector_59" fill="#000000" d="M286.956 278.004c1.338 1.5510000000000002 2.412 12.707999999999998 -0.8819999999999999 12.423 -2.1029999999999998 -0.183 -5.847 0.486 -12.986999999999998 0.309 -1.9020000000000001 -0.048 -6.342 0.669 -7.976999999999999 -0.22799999999999998 -4.599 -2.5229999999999997 3.4530000000000003 -9.318 5.757 -10.497 3.3720000000000003 -1.7279999999999998 13.158000000000001 -5.403 16.089000000000002 -2.007Zm-7.638 9.732000000000001c6.2669999999999995 0.21899999999999997 7.083 1.785 6.3149999999999995 -6.8100000000000005 -0.399 -4.452 -21.144 2.79 -17.874000000000002 6.9270000000000005 1.008 1.275 9.789 -0.18 11.559000000000001 -0.11699999999999999Z" stroke-width="1"></path><path id="vector_60" fill="#000000" d="M224.016 195.588c20.466 21.321 6.465 60.159000000000006 -24.03 59.766000000000005 -22.437 -0.28800000000000003 -33.144 -22.776 -32.088 -34.851 0 -31.854 36.093 -45.774 56.117999999999995 -24.915Zm-23.313 56.595c21.107999999999997 -0.24 34.758 -22.665 28.422 -41.49 -5.244 -15.578999999999999 -19.563 -24.381 -35.844 -20.895 -15.213 3.261 -24.320999999999998 19.919999999999998 -22.485 34.701 1.818 14.628 14.52 27.857999999999997 29.906999999999996 27.683999999999997Z" stroke-width="1"></path><path id="vector_61" fill="#000000" d="M226.488 219.798c-0.5309999999999999 13.14 -8.583 24.732 -22.107 26.924999999999997 -14.73 2.391 -26.762999999999998 -9.99 -28.296 -23.808 -1.452 -13.082999999999998 7.286999999999999 -26.103 20.301000000000002 -28.875 13.014 -2.7750000000000004 27.669000000000004 5.7330000000000005 30.102000000000004 25.758000000000003Zm-23.361 21.678c2.151 5.3309999999999995 21.066000000000003 -6.3629999999999995 19.727999999999998 -21.198 -3.3240000000000003 0.29700000000000004 -6.5280000000000005 0.786 -9.879000000000001 0.792 -2.1029999999999998 0.003 -8.139 -1.554 -9.624 -0.5940000000000001 -1.602 1.0379999999999998 -0.45899999999999996 5.976 -0.489 7.947 -0.015 1.0739999999999998 -0.063 12.243000000000002 0.261 13.049999999999999l0.003 0.003Zm18.977999999999998 -24.768c1.665 -1.968 -2.811 -14.616 -14.979000000000001 -18.410999999999998 -6.1080000000000005 -1.905 -4.572 -1.137 -4.5089999999999995 12.456 0.009000000000000001 1.6350000000000002 -0.777 5.025 0.627 6.1770000000000005 1.5510000000000002 1.275 7.161 0.366 9.057 0.366 0 -0.20700000000000002 8.427 1.044 9.801 -0.585l0.003 -0.003Zm-31.329 23.631c11.133 6.195 8.727 1.971 8.487 -5.778 -0.486 -15.543 2.586 -15.21 -8.19 -14.097 -11.52 1.191 -12.879000000000001 -2.2800000000000002 -11.097 5.115 1.383 5.747999999999999 5.349 11.724 10.803 14.756999999999998l-0.003 0.003Zm5.004 -23.664c4.4190000000000005 0 4.089 -0.10200000000000001 3.0389999999999997 -11.834999999999999 -0.14700000000000002 -1.641 0.663 -6.288 -0.9239999999999999 -7.149 -1.434 -0.78 -9.678 2.4419999999999997 -14.405999999999999 9.153 -1.161 1.6500000000000001 -4.659 7.142999999999999 -3.8129999999999997 9.204 1.593 3.867 16.041 -0.026999999999999996 16.104 0.627Z" stroke-width="1"></path><path id="vector_62" fill="#000000" d="M180.249 387.29100000000005c0.276 10.635 1.089 13.14 -2.832 14.346 -4.1579999999999995 1.278 -28.353 0.29400000000000004 -36.251999999999995 0.34500000000000003 -5.211 0.033 -13.274999999999999 2.694 -13.71 -4.446 -0.45899999999999996 -7.505999999999999 -0.9870000000000001 -63.603 -0.23399999999999999 -100.55100000000002 0.41400000000000003 -20.294999999999998 -6.639 -18.141 25.628999999999998 -18.219 29.688000000000002 -0.07200000000000001 27.645 -5.244 27.125999999999998 18.213 -0.012 0.585 0.168 86.19300000000001 0.276 90.315l-0.003 -0.003Zm-3.204 11.844c1.884 -1.7489999999999999 0.723 -10.947 0.7020000000000001 -13.884 -0.732 -104.178 0.633 -102.92699999999999 -0.9359999999999999 -104.178 -1.2000000000000002 -0.9570000000000001 -5.13 0.093 -6.693 0.159 -15.591000000000001 0.666 -29.262 -0.6990000000000001 -37.326 0.648 -3.213 0.5369999999999999 -2.889 1.026 -2.847 4.1579999999999995 0.084 6.486 -0.678 91.542 0.324 110.27099999999999 0.261 4.875 1.605 3.042 11.58 2.949 34.707 -0.315 34.293 0.714 35.196 -0.123Z" stroke-width="1"></path><path id="vector_63" fill="#000000" d="M173.385 314.649c0.006 1.71 1.0050000000000001 6.747 0.006 8.112 -1.131 1.545 -5.514 0.675 -7.341 0.771 -2.145 0.11399999999999999 -27.498 1.284 -29.517000000000003 0.552 -2.58 -0.9359999999999999 -1.7429999999999999 -2.427 -1.758 -5.301 -0.189 -36.666 -3.5970000000000004 -33.168 10.841999999999999 -33.213 26.415 -0.078 26.195999999999998 -1.083 27.471 0.309 1.254 1.371 0.366 6.687 0.387 8.583 0.07200000000000001 6.720000000000001 -0.11399999999999999 13.457999999999998 -0.09 20.187Zm-2.529 -26.766000000000002c-10.203 1.929 -21.315 -0.99 -31.614 0.41400000000000003 -3.93 0.5369999999999999 -2.043 -0.14400000000000002 -2.0669999999999997 27.207 0 1.3980000000000001 -0.51 5.045999999999999 0.663 6.141 0.708 0.663 0.042 0.045 23.127 -0.45599999999999996 2.205 -0.048 6.63 0.723 8.706 -0.11699999999999999 0.8250000000000001 -0.333 1.131 -0.327 1.23 -2.5709999999999997 0.006 -0.11399999999999999 0.084 -29.199 -0.042 -30.621000000000002l-0.003 0.003Z" stroke-width="1"></path><path id="vector_64" fill="#000000" d="M173.69400000000002 333.915c0 -4.806 -0.159 -6.141 -5.079000000000001 -6.1290000000000004 -1.533 0.003 -30.983999999999998 0.10799999999999998 -32.349 0.78 -2.763 1.365 -1.5510000000000002 0.6000000000000001 -1.491 58.715999999999994 0.006 3.1980000000000004 -1.089 6.336 1.932 7.526999999999999 3.1769999999999996 1.254 9.174 -0.34500000000000003 12.690000000000001 -0.43499999999999994 17.802 -0.474 22.683 1.761 24.285000000000004 -2.094 0.675 -1.62 0.026999999999999996 -29.607 0.012 -58.364999999999995Zm-2.8739999999999997 57.951c-0.669 0.633 -3.447 0.717 -6.2669999999999995 0.621 -3.3420000000000005 -0.11699999999999999 -6.741 -0.498 -6.741 -0.5309999999999999 -18 0 -19.419 1.377 -20.307000000000002 -0.35100000000000003 -1.137 -2.226 -0.17400000000000002 -8.112 -0.192 -10.533000000000001 -0.015 -0.9359999999999999 -0.23399999999999999 -28.209000000000003 -0.22799999999999998 -39.747 0 -2.055 -0.9990000000000001 -9.321000000000002 0.5369999999999999 -10.512 1.6949999999999998 -1.314 9.477 -0.22799999999999998 11.559000000000001 -0.28800000000000003 3.9029999999999996 -0.10500000000000001 7.797000000000001 -0.18 11.690999999999999 -0.20700000000000002 1.905 -0.012 8.892 -1.383 10.071000000000002 0.033 0.138 0.17400000000000002 0.33 49.41 0.33 49.479 -0.021 2.061 1.08 10.587 -0.45299999999999996 12.035999999999998Z" stroke-width="1"></path><path id="vector_65" fill="#000000" d="M160.521 344.043c3.3600000000000003 -3.558 2.0909999999999997 1.542 1.311 3.5010000000000003 -0.714 1.797 -14.600999999999999 34.44 -16.482 34.155 -3.3720000000000003 0.096 0.318 -5.2589999999999995 0.9299999999999999 -6.507 13.845 -28.146 11.736 -28.497 14.241 -31.148999999999997Z" stroke-width="1"></path><path id="vector_66" fill="#000000" d="M159.651 294.71999999999997c0.483 0.255 0.663 0.579 0.723 1.125 -1.137 2.949 -9.603 21.267000000000003 -12.035999999999998 20.1 -2.2560000000000002 -1.08 9.981 -21.927 11.312999999999999 -21.225Z" stroke-width="1"></path><path id="vector_67" fill="#000000" d="M156.018 342.864c1.569 0.774 1.338 0.807 -3.2940000000000005 10.194 -0.5249999999999999 1.0619999999999998 -2.847 7.622999999999999 -4.536 5.343 -1.275 -1.722 6.815999999999999 -16.038 7.83 -15.537Z" stroke-width="1"></path><path id="vector_68" fill="#000000" d="M147.885 306.252c-1.29 -1.4489999999999998 7.478999999999999 -17.232 7.533 -10.665000000000001 -0.627 1.6949999999999998 -5.589 12.849 -7.533 10.665000000000001Z" stroke-width="1"></path><path id="vector_69" fill="#000000" d="M151.752 439.362c0.42000000000000004 5.529 0.22799999999999998 11.076 0.23399999999999999 16.614 0.003 3.24 1.242 10.533000000000001 -2.544 12.057 -0.40800000000000003 0.165 -69.78 0.042 -70.215 -0.042 -3.9240000000000004 -0.765 -3.7230000000000003 -1.785 -3.1229999999999998 -27.429000000000002 0.192 -8.271 -1.8900000000000001 -13.254000000000001 6.651 -13.503 12.207 -0.357 41.144999999999996 0.9870000000000001 60.510000000000005 1.095 2.586 0.015 6.9719999999999995 -0.663 8.436 2.0669999999999997 0.9870000000000001 1.839 0.43799999999999994 7.202999999999999 0.051000000000000004 9.141Zm-8.223 25.628999999999998c6.582 0.006 5.9670000000000005 1.896 5.583 -15.495000000000001 -0.534 -24.114 5.913 -17.817 -21.555 -18.735 -21.528 -0.72 -29.145 -0.5369999999999999 -35.451 -0.807 -2.991 -0.126 -7.899 -1.224 -10.734 -0.309 -4.0169999999999995 1.293 -2.283 10.719 -2.283 14.235 0 6.1979999999999995 -0.732 12.849 -0.07500000000000001 18.942 0.36 3.357 3.33 2.187 6.1499999999999995 2.184l58.364999999999995 -0.015Z" stroke-width="1"></path><path id="vector_70" fill="#000000" d="M144.825 447.702c-0.14700000000000002 11.25 0.654 10.677 0.45599999999999996 11.25 -0.9690000000000001 2.8080000000000003 -5.646 1.476 -7.872 1.3980000000000001 -0.069 -0.006 -42.951 0 -49.893 -0.45599999999999996 -5.541 -0.363 -3.3240000000000003 -3.0060000000000002 -3.66 -17.750999999999998 -0.048 -2.082 -0.75 -4.953 1.095 -6.411 2.112 -1.665 8.301 -0.46199999999999997 10.841999999999999 -0.399 6.209999999999999 0.156 0.015 -0.44099999999999995 45.054 0.042 4.4879999999999995 0.048 4.143 -0.396 3.978 12.327Zm-3.75 6.789c1.1640000000000001 -17.862 1.455 -15.684 -5.328 -15.654 -36.411 0.165 -36.156 -0.024 -36.459 -0.026999999999999996 -2.193 -0.03 -10.485 -1.401 -11.994 0.23399999999999999 -0.642 0.6960000000000001 0.153 3.5490000000000004 0.201 4.2059999999999995 0.396 5.535 -0.753 10.809000000000001 0.015 12.020999999999999 0.909 1.434 2.745 0.9510000000000001 4.4190000000000005 1.0050000000000001 15.165 0.513 42.153 0.28800000000000003 46.494 0.51 2.805 0.14400000000000002 2.472 0.46799999999999997 2.652 -2.295Z" stroke-width="1"></path><path id="vector_71" fill="#000000" d="M119.037 441.684c0.807 -0.474 1.614 0.021 1.614 1.1640000000000001 -1.131 1.896 -8.781 11.451 -11.001 9.762 -1.8479999999999999 -1.407 7.7459999999999996 -9.963000000000001 9.387 -10.926Z" stroke-width="1"></path><path id="vector_72" fill="#000000" d="M118.065 320.10299999999995c1.482 25.436999999999998 -0.42299999999999993 49.908 -0.30300000000000005 61.062 0.201 18.522000000000002 2.4330000000000003 22.160999999999998 -7.452 22.160999999999998 -0.015 0.318 -10.656 -0.534 -34.149 0.11699999999999999 -2.517 0.069 -7.6290000000000004 1.446 -9.831 -0.23399999999999999 -2.349 -1.794 -1.215 -6.156000000000001 -1.2269999999999999 -8.595 -0.018000000000000002 -4.2059999999999995 -0.516 -8.493 -0.579 -12.732 -0.516 -34.101 0.21299999999999997 -94.038 0.21299999999999997 -94.107 -0.006 -2.73 -0.909 -4.851 1.536 -6.432 3.09 -1.9980000000000002 29.994 -0.978 38.244 -1.014 3.0540000000000003 -0.012 8.997 -1.4489999999999998 11.499 0.44099999999999995 3.4139999999999997 2.577 0.168 6.9750000000000005 2.0490000000000004 39.333Zm-2.412 24.243c0.003 -13.379999999999999 -0.9630000000000001 -32.577 -0.723 -53.202000000000005 0.10500000000000001 -8.913 0.504 -8.061 -1.3800000000000001 -8.690999999999999 -2.412 -0.81 -7.059000000000001 0.375 -9.576 0.46799999999999997 -7.707 0.28800000000000003 -24.981 -0.5189999999999999 -32.646 0.393 -2.406 0.28800000000000003 -3.4259999999999997 0.093 -4.053 2.262 -0.123 0.42000000000000004 -0.384 114.12899999999999 0.9450000000000001 115.401 1.311 1.254 5.535 0 7.032 -0.033 40.065 -0.9750000000000001 39.735 1.428 39.927 -2.88 0.237 -5.364 -0.315 -10.767 -0.393 -16.131 -0.177 -12.471 0.8639999999999999 -25.076999999999998 0.8699999999999999 -37.580999999999996l-0.003 -0.006Z" stroke-width="1"></path><path id="vector_73" fill="#000000" d="M109.24799999999999 329.331c3.165 1.617 1.992 5.982 1.992 9.093 0.003 8.541 0.22499999999999998 53.487 -0.11099999999999999 54.91199999999999 -0.9359999999999999 3.9989999999999997 -6.231 2.658 -9.672 2.592 -30.33 -0.585 -29.097 4.026 -29.097 -6.288 0.41400000000000003 -0.021 -1.6919999999999997 -21.708 -0.30300000000000005 -55.614000000000004 0.237 -5.811 1.3800000000000001 -3.981 29.766000000000002 -4.7700000000000005 1.944 -0.05399999999999999 5.625 -0.8430000000000001 7.425000000000001 0.07500000000000001Zm-0.627 58.53c0.195 -7.83 0 -55.47 -0.042 -55.539 -0.885 -1.431 -2.868 -0.723 -4.668 -0.642 -8.319 0.378 -16.641 0.29400000000000004 -24.974999999999998 0.585 -0.978 0.033 -3.3810000000000002 -0.375 -4.032 0.30300000000000005 -0.72 0.75 -0.159 43.428000000000004 -0.159 44.496 0.5640000000000001 0 -1.209 15.330000000000002 0.9239999999999999 16.683 0.897 0.5700000000000001 -0.006 -0.378 28.971 -0.357 4.941 0.003 3.8609999999999998 -0.7020000000000001 3.981 -5.529Z" stroke-width="1"></path><path id="vector_74" fill="#000000" d="M110.208 442.43100000000004c3.7649999999999997 0.5309999999999999 -1.7159999999999997 4.929 -2.8259999999999996 6.072 -0.22199999999999998 0.22799999999999998 -0.5940000000000001 0.29700000000000004 -0.786 0.387 -3.978 -0.46799999999999997 2.4330000000000003 -6.6240000000000006 3.612 -6.459Z" stroke-width="1"></path><path id="vector_75" fill="#000000" d="M98.58600000000001 345.68399999999997c0.501 -0.8819999999999999 2.625 -3.3899999999999997 2.4210000000000003 -0.43499999999999994 0.5309999999999999 0.18 -11.685 27.786 -11.76 27.924 -1.296 2.373 -3.0780000000000003 3.048 -2.8259999999999996 -0.21299999999999997 0.21899999999999997 -2.832 2.814 -6.720000000000001 3.963 -9.327 0.489 -1.1099999999999999 6.993 -15.822 8.202 -17.948999999999998Z" stroke-width="1"></path><path id="vector_76" fill="#000000" d="M97.02000000000001 295.63800000000003c0.573 -0.27 1.194 0.159 1.194 0.9359999999999999 -0.9990000000000001 2.607 -7.356 18.866999999999997 -9.863999999999999 18.612 -3.0749999999999997 -0.312 1.602 -7.362 2.283 -8.642999999999999 1.368 -2.577 3.678 -9.629999999999999 6.3870000000000005 -10.905Z" stroke-width="1"></path><path id="vector_77" fill="#000000" d="M93.774 344.193c4.539 -2.646 -0.5429999999999999 6.717 -4.356 15.131999999999998 -0.21000000000000002 0.46199999999999997 -0.495 0.771 -0.9359999999999999 0.663 -3.261 0.033 0.327 -5.589 0.8759999999999999 -6.714 0.795 -1.6260000000000001 2.79 -8.129999999999999 4.4190000000000005 -9.078l-0.003 -0.003Z" stroke-width="1"></path><path id="vector_78" fill="#000000" d="M91.884 295.404c4.122 -1.149 -2.418 9.096 -3.1500000000000004 10.587 -0.246 0.498 -0.621 0.6000000000000001 -1.056 0.5940000000000001 -2.805 -0.039 2.7990000000000004 -10.788 4.2059999999999995 -11.181Z" stroke-width="1"></path><path id="vector_79" fill="#000000" d="M110.97900000000001 306.40500000000003c0 -17.289299999999997 0.591 -18.2823 -1.296 -19.5003 -1.29 -0.8340000000000001 -2.6550000000000002 -0.20700000000000002 -18.087 0.249 -7.257 0.21899999999999997 -15.489 -0.9870000000000001 -17.942999999999998 0.372 -1.92 1.059 -1.6800000000000002 -0.069 -1.572 28.3533 0.006 2.055 -1.0739999999999998 7.809000000000001 0.366 9.264 1.455 1.4729999999999999 6.561 0.42000000000000004 8.487 0.42000000000000004 0.11099999999999999 0 17.375999999999998 -0.10200000000000001 20.937 -0.261 11.361 -0.498 9.113999999999999 3.495 9.113999999999999 -18.894l-0.006 -0.003Zm-2.7030000000000003 13.959c-0.23399999999999999 1.9860000000000002 0.276 1.53 -0.9179999999999999 2.337 -1.275 0.867 -6.9959999999999996 -0.22799999999999998 -6.9959999999999996 0.063 -19.038 0 -23.277 1.857 -25.23 0.33 -1.374 -1.083 -0.393 -8.169 -0.43499999999999994 -9.933 -0.11099999999999999 -4.35 -0.14400000000000002 -8.7 -0.192 -13.049999999999999 -0.009000000000000001 -1.6713 -1.206 -8.3523 0 -9.8583 1.6320000000000001 -2.0669999999999997 27.621000000000002 0.387 33.879 -0.8280000000000001 0.5940000000000001 5.922 -0.048 30.387299999999996 -0.11099999999999999 30.936299999999996l0.003 0.003Z" stroke-width="1"></path></g><g id="ground"><path id="vector_80" fill="#e6edef" d="m520.668 546.7860000000001 -438.31499999999994 0.006c-24.81 0 -46.2 -15.171000000000001 -51.19500000000001 -36.315l-10.60194 -32.379 562.08294 -0.807 -11.526 35.922c-6.1770000000000005 19.817999999999998 -26.840999999999998 33.573 -50.44500000000001 33.573Z" stroke-width="1"></path><path id="vector_81" fill="#000000" d="M584.7750000000001 475.263c-0.51 -1.0619999999999998 -0.14400000000000002 -1.014 -9.629999999999999 -0.978 -556.053 2.094 -555.20097 0.8310000000000001 -556.36197 2.184 -0.20700000000000002 0.24 -0.8400000000000001 1.818 2.502 2.019 17.79597 1.0739999999999998 538.57497 -0.5309999999999999 557.77497 -0.8190000000000001 3.1529999999999996 -0.048 6.824999999999999 -0.10500000000000001 5.715 -2.4090000000000003v0.003Z" stroke-width="1"></path></g><g id="plant"><path id="vector_82" fill="#99ffcc" d="M227.32799999999997 415.908c-0.618 1.7369999999999999 -2.1239999999999997 3.0389999999999997 -2.724 4.749 -1.272 3.6390000000000002 2.2800000000000002 6.111 0.318 10.431 -0.81 1.785 -0.9870000000000001 3.2520000000000002 -1.6350000000000002 5.031000000000001 -1.365 3.75 -6.894 4.5120000000000005 -10.173 5.742 -1.7999999999999998 0.675 -3.606 1.3920000000000001 -5.556 1.524 -2.9219999999999997 0.40800000000000003 -4.2059999999999995 -3.666 -6.492000000000001 -4.701 -3.7230000000000003 -1.6860000000000002 -5.664 -1.0619999999999998 -5.067 -6.024 0.198 -1.6470000000000002 0.765 -2.979 -0.05399999999999999 -4.494 -0.6900000000000001 -1.275 -2.3280000000000003 -1.785 -2.979 -3.186 -1.395 -3 -0.012 -6.449999999999999 1.869 -8.685 2.643 -3.141 0.8459999999999999 -3.468 -0.186 -6.9270000000000005 -1.173 -3.93 1.866 -3.888 3.798 -6.404999999999999 2.643 -3.441 -0.966 -4.5 -1.35 -7.542 -0.5369999999999999 -4.239 4.6049999999999995 -4.2059999999999995 5.715 -7.308 1.143 -3.1980000000000004 -2.793 -5.985 -1.6680000000000001 -9.402 0.9570000000000001 -2.91 4.199999999999999 -2.598 5.493 -5.157 1.0230000000000001 -2.0250000000000004 0.627 -8.106 3.909 -7.968 3.441 0.14400000000000002 2.5709999999999997 6.66 3.3839999999999995 8.685 1.248 3.1020000000000003 4.764 4.368 6.209999999999999 7.2780000000000005 1.602 3.2249999999999996 -1.767 5.883 0.552 8.678999999999998 0.807 0.972 2.427 1.308 3.3360000000000003 2.343 4.836 5.499 -0.9299999999999999 9.45 0.42000000000000004 12.939 0.78 2.013 4.989 4.482 2.88 10.395v0.003Z" stroke-width="1"></path><path id="vector_83" fill="#fff6cc" d="M221.751 451.104c-0.069 8.928 -0.795 13.884 -1.4609999999999999 19.086 -0.771 6.026999999999999 -3.885 5.5200000000000005 -11.966999999999999 5.481 -4.977 -0.024 -7.7219999999999995 -0.012 -8.408999999999999 -5.481 -1.521 -12.120000000000001 -2.283 -23.043 -1.854 -23.685 0.42899999999999994 -0.642 4.743 0.687 11.690999999999999 0.201 6.336 -0.44399999999999995 9.225000000000001 -1.7279999999999998 11.036999999999999 -0.489 0.903 0.618 0.984 2.151 0.9630000000000001 4.8870000000000005Z" stroke-width="1"></path><path id="vector_84" fill="#000000" d="M229.266 419.16600000000005c-0.069 -0.744 2.4330000000000003 -3.4319999999999995 1.566 -8.478 -0.711 -4.128 -3.21 -4.431 -2.661 -8.796 0.753 -5.964 1.6800000000000002 -7.107000000000001 -2.427 -11.745000000000001 -0.621 -0.7020000000000001 -2.493 -1.8900000000000001 -2.811 -2.715 -0.522 -1.353 1.269 -3.894 0.723 -5.709 -0.501 -1.6680000000000001 -4.224 -4.716 -6.735 -7.368 -1.344 -1.419 -1.068 -3.5279999999999996 -1.179 -5.397 -0.46799999999999997 -2.7990000000000004 -0.9570000000000001 -5.805 -4.053 -6.618 -4.695 -1.23 -6.161999999999999 5.04 -7.134 8.073 -1.2389999999999999 3.867 -5.577 4.404 -6.252000000000001 8.817 -0.399 2.6189999999999998 1.6320000000000001 4.4670000000000005 1.53 6.666 -0.09 1.9500000000000002 -0.9930000000000001 1.4129999999999998 -2.676 2.745 -2.598 2.055 -3.792 6.327 -2.391 9.354 0.642 1.3860000000000001 2.0460000000000003 1.578 1.2000000000000002 3.096 -0.636 1.137 -2.8739999999999997 1.5390000000000001 -3.7230000000000003 2.889 -1.2120000000000002 1.932 -1.2389999999999999 4.437 -0.477 6.513 0.954 2.598 1.44 2.0340000000000003 0.489 3.4530000000000003 0.159 0.792 -2.0759999999999996 3.213 -2.517 4.737 -0.5940000000000001 2.061 -0.096 4.656000000000001 -0.23399999999999999 5.631 0.357 0.972 0.615 2.184 1.6470000000000002 3.5490000000000004 0.46199999999999997 0.612 1.923 1.44 2.145 2.082 0.585 1.7039999999999997 -4.191 8.397 4.785 11.457 -3.8729999999999998 2.979 -2.931 6.680999999999999 -2.667 11.34 0.369 6.5280000000000005 1.209 13.47 1.785 16.86 1.104 6.516 2.406 8.928 11.214 8.451 2.097 0.05399999999999999 5.46 0.081 6.369000000000001 0.048 4.539 -0.165 6.27 -1.773 7.266 -4.308 0.552 0.021 2.4090000000000003 -11.754000000000001 2.5709999999999997 -16.572 0.20400000000000001 -6.033 0.21299999999999997 -12.597 -0.558 -13.863000000000001 -0.168 -0.276 -2.052 -1.137 -2.019 -1.5030000000000001 0.056999999999999995 -0.654 2.1719999999999997 -1.4249999999999998 2.709 -1.9860000000000002 1.197 -1.251 1.2329999999999999 -2.301 1.6350000000000002 -3.8609999999999998 0.552 -2.145 1.881 -4.032 2.163 -6.305999999999999 0.192 -1.536 -0.861 -3.714 -0.6900000000000001 -5.328 -0.135 -2.415 -0.41100000000000003 -3.4319999999999995 1.407 -5.205v-0.003Zm-7.517999999999999 31.941000000000003c-0.069 8.928 -0.795 13.884 -1.4609999999999999 19.086 -0.771 6.026999999999999 -3.885 5.5200000000000005 -11.966999999999999 5.481 -4.977 -0.024 -7.7219999999999995 -0.012 -8.408999999999999 -5.481 -1.521 -12.120000000000001 -2.283 -23.043 -1.854 -23.685 0.42899999999999994 -0.642 4.743 0.687 11.690999999999999 0.201 6.336 -0.44399999999999995 9.225000000000001 -1.7279999999999998 11.036999999999999 -0.489 0.903 0.618 0.984 2.151 0.9630000000000001 4.8870000000000005Zm5.577 -35.196c-0.618 1.7369999999999999 -2.1239999999999997 3.0389999999999997 -2.724 4.749 -1.272 3.6390000000000002 2.2800000000000002 6.111 0.318 10.431 -0.81 1.785 -0.9870000000000001 3.2520000000000002 -1.6350000000000002 5.031000000000001 -1.365 3.75 -6.894 4.5120000000000005 -10.173 5.742 -1.7999999999999998 0.675 -3.606 1.3920000000000001 -5.556 1.524 -2.9219999999999997 0.40800000000000003 -4.2059999999999995 -3.666 -6.492000000000001 -4.701 -3.7230000000000003 -1.6860000000000002 -5.664 -1.0619999999999998 -5.067 -6.024 0.198 -1.6470000000000002 0.765 -2.979 -0.05399999999999999 -4.494 -0.6900000000000001 -1.275 -2.3280000000000003 -1.785 -2.979 -3.186 -1.395 -3 -0.012 -6.449999999999999 1.869 -8.685 2.643 -3.141 0.8459999999999999 -3.468 -0.186 -6.9270000000000005 -1.173 -3.93 1.866 -3.888 3.798 -6.404999999999999 2.643 -3.441 -0.966 -4.5 -1.35 -7.542 -0.5369999999999999 -4.239 4.6049999999999995 -4.2059999999999995 5.715 -7.308 1.143 -3.1980000000000004 -2.793 -5.985 -1.6680000000000001 -9.402 0.9570000000000001 -2.91 4.199999999999999 -2.598 5.493 -5.157 1.0230000000000001 -2.0250000000000004 0.627 -8.106 3.909 -7.968 3.441 0.14400000000000002 2.5709999999999997 6.66 3.3839999999999995 8.685 1.248 3.1020000000000003 4.764 4.368 6.209999999999999 7.2780000000000005 1.602 3.2249999999999996 -1.767 5.883 0.552 8.678999999999998 0.807 0.972 2.427 1.308 3.3360000000000003 2.343 4.836 5.499 -0.9299999999999999 9.45 0.42000000000000004 12.939 0.78 2.013 4.989 4.485 2.88 10.398Z" stroke-width="1"></path></g></g></svg>