<svg viewBox="-3 -3 600 600" xmlns="http://www.w3.org/2000/svg" id="Repair-Technician-1-1--Streamline-Ux.svg" height="600" width="600"><desc>Repair Technician 1 1 Streamline Illustration: https://streamlinehq.com</desc><path d="M194.35086 308.57706v85.48848H534.303V190.27007999999998a12.028500000000001 12.028500000000001 0 0 0 -12.028500000000001 -12.028500000000001H384.0210000000001" fill="none" stroke="#020064" stroke-linecap="round" stroke-linejoin="round" stroke-width="6"></path><path d="M233.3826 178.24158000000003h-27.00324a12.028500000000001 12.028500000000001 0 0 0 -12.028500000000001 12.028500000000001v66.2013" fill="none" stroke="#020064" stroke-linecap="round" stroke-linejoin="round" stroke-width="6"></path><path d="m218.51478 308.57706 0 85.48848 291.6243 0 0 -191.82636 -137.01798000000002 0" fill="none" stroke="#020064" stroke-linecap="round" stroke-linejoin="round" stroke-width="6"></path><path d="m242.49456 202.23918 -23.97978 0 0 54.78462000000001" fill="none" stroke="#020064" stroke-linecap="round" stroke-linejoin="round" stroke-width="6"></path><path d="M173.89944 394.06554h384.38928000000004A6.01128 6.01128 0 0 1 564.3000000000001 400.08276v17.98038H200.6829" fill="none" stroke="#020064" stroke-linecap="round" stroke-linejoin="round" stroke-width="6"></path><path d="M564.3000000000001 418.06314000000003a415.74654000000004 415.74654000000004 0 0 1 -114.2262 15.99642H278.586a416.04354 416.04354 0 0 1 -77.56452 -7.294320000000001" fill="none" stroke="#020064" stroke-linecap="round" stroke-linejoin="round" stroke-width="6"></path><path d="M318.21174 243.83106a72.75906 72.75906 0 0 0 22.17996 10.282140000000002v17.98038a7.722 7.722 0 0 0 7.722 7.722h23.112540000000003a7.722 7.722 0 0 0 7.722 -7.722V254.11320000000003a73.06200000000001 73.06200000000001 0 0 0 32.2542 -18.627840000000003l15.586560000000002 8.98128a7.6863600000000005 7.6863600000000005 0 0 0 10.51974 -2.81556l11.553300000000002 -20.011860000000002a7.722 7.722 0 0 0 -2.81556 -10.51974l-15.36084 -8.91m-35.80632 0a39.857400000000005 39.857400000000005 0 0 1 -35.230140000000006 21.134520000000002 40.392 40.392 0 0 1 -5.4588600000000005 -0.36828" fill="none" stroke="#020064" stroke-linecap="round" stroke-linejoin="round" stroke-width="6"></path><path d="M246.80106 233.19252000000003a6.11226 6.11226 0 0 0 -4.20552 -1.6632000000000002h-18.491220000000002a6.15978 6.15978 0 0 0 -5.6489400000000005 3.7006200000000002m85.37562 50.15142a6.15978 6.15978 0 0 0 0.8613 -7.324020000000001l-1.26522 -2.19186M278.37216 352.36080000000004l8.66052 4.9896a6.1479 6.1479 0 0 0 8.41698 -2.2512600000000003l9.27234 -16.0083a6.1479 6.1479 0 0 0 -2.2512600000000003 -8.41104l-12.474000000000002 -7.19928a58.806000000000004 58.806000000000004 0 0 0 1.67508 -9.604980000000001" fill="none" stroke="#020064" stroke-linecap="round" stroke-linejoin="round" stroke-width="6"></path><path d="m407.96514 357.54048 -8.316 -4.79952a39.281220000000005 39.281220000000005 0 0 0 0 -19.869300000000003l8.316 -4.79952a4.11048 4.11048 0 0 0 1.50282 -5.6133l-6.16572 -10.692a4.0986 4.0986 0 0 0 -5.60736 -1.4968800000000002l-8.316 4.787640000000001a38.9664 38.9664 0 0 0 -17.226 -9.93168v-9.575280000000001a4.10454 4.10454 0 0 0 -4.11048 -4.10454h-12.301740000000002a4.10454 4.10454 0 0 0 -4.10454 4.10454v9.5931a38.9664 38.9664 0 0 0 -17.226 9.93168l-8.316 -4.787640000000001a4.10454 4.10454 0 0 0 -5.6133 1.4968800000000002l-6.15978 10.692a4.11048 4.11048 0 0 0 1.50282 5.6133l8.316 4.79952a39.281220000000005 39.281220000000005 0 0 0 0 19.869300000000003l-8.316 4.79952a4.0986 4.0986 0 0 0 -1.50282 5.60736l6.15978 10.692a4.10454 4.10454 0 0 0 5.6133 1.50282l8.316 -4.79358a38.91888 38.91888 0 0 0 17.226 9.93762v9.58716a4.10454 4.10454 0 0 0 4.10454 4.11048h12.325500000000002a4.11048 4.11048 0 0 0 4.11048 -4.11048v-9.622800000000002a38.91888 38.91888 0 0 0 17.226 -9.93762l8.316 4.79358a4.0986 4.0986 0 0 0 5.60736 -1.50282l6.16572 -10.692a4.0986 4.0986 0 0 0 -1.52658 -5.58954Zm-46.05876 5.60142a20.33856 20.33856 0 1 1 20.33856 -20.33856 20.33856 20.33856 0 0 1 -20.33856 20.33856Z" fill="none" stroke="#020064" stroke-linecap="round" stroke-linejoin="round" stroke-width="6"></path><path d="m240.31458 293.20434 -29.61684 0.23760000000000003 0 -22.869000000000003 37.61208 0" fill="none" stroke="#020064" stroke-linecap="round" stroke-linejoin="round" stroke-width="6"></path><path d="m278.84142 270.05022 15.622200000000001 -44.229240000000004 -14.68962 -5.197500000000001 -43.956 124.34202a7.805160000000001 7.805160000000001 0 0 0 14.71338 5.197500000000001l24.16392 -68.39316" fill="none" stroke="#020064" stroke-linecap="round" stroke-linejoin="round" stroke-width="6"></path><path d="M283.99734 294.49926000000005 261.954 356.95242a20.790000000000003 20.790000000000003 0 0 1 -39.245580000000004 -13.86396l46.26666 -130.95324a62.370000000000005 62.370000000000005 0 0 1 39.1743 -110.88198000000001l-17.85564 50.53752L304.722 173.448l24.817320000000002 -7.7814000000000005 17.831879999999998 -50.5494a62.370000000000005 62.370000000000005 0 0 1 -39.1743 110.88198000000001l-16.3647 46.332" fill="none" stroke="#020064" stroke-linecap="round" stroke-linejoin="round" stroke-width="6"></path><path d="m294.35076000000004 278.65134 -2.26908 10.97118a6.20136 6.20136 0 0 1 -6.31422 4.94208l-6.2845200000000006 -0.23760000000000003a6.20136 6.20136 0 0 1 -5.833080000000001 -7.4547l2.6789400000000003 -12.996720000000002a6.2073 6.2073 0 0 1 8.316 -4.532220000000001l5.86278 2.26908a6.20136 6.20136 0 0 1 3.8431800000000003 7.038900000000001Z" fill="none" stroke="#020064" stroke-linecap="round" stroke-linejoin="round" stroke-width="6"></path><path d="M124.05096 270.57888a18.67536 18.67536 0 1 0 36.60822 0Z" fill="none" stroke="#020064" stroke-linecap="round" stroke-linejoin="round" stroke-width="6"></path><path d="M151.71948000000003 474.012c-0.035640000000000005 -4.41342 -0.16038000000000002 -11.08998 -0.49302000000000007 -20.469240000000003 -0.9801000000000001 -27.36558 -36.4716 -32.48586 -53.02044000000001 -36.192420000000006L78.52086 477.5760000000001" fill="none" stroke="#020064" stroke-linecap="round" stroke-linejoin="round" stroke-width="6"></path><path d="M181.22940000000003 450.38268000000005c0.30294 8.4942 0.13068 17.35668 0.18414 26.2251" fill="none" stroke="#020064" stroke-linecap="round" stroke-linejoin="round" stroke-width="6"></path><path d="m62.89272 415.5564600000001 10.91178 -39.893040000000006 79.54848 20.374200000000002a41.799780000000005 41.799780000000005 0 0 1 21.66318 21.288960000000003" fill="none" stroke="#020064" stroke-linecap="round" stroke-linejoin="round" stroke-width="6"></path><path d="m46.783440000000006 474.43374 7.70418 -28.155600000000003" fill="none" stroke="#020064" stroke-linecap="round" stroke-linejoin="round" stroke-width="6"></path><path d="m92.664 301.52628000000004 -18.8595 74.13714 79.54848 20.374200000000002L180.93240000000003 293.43600000000004h29.765340000000002v-22.869000000000003H99.68508000000001c-22.049280000000003 0 -39.465360000000004 22.869000000000003 -39.465360000000004 22.869000000000003l18.54468 17.29134a19.673280000000002 19.673280000000002 0 0 1 13.8996 -9.20106Z" fill="none" stroke="#020064" stroke-linecap="round" stroke-linejoin="round" stroke-width="6"></path><path d="M87.80508 492.74676c0 -13.365 -13.026420000000002 -18.68724 -24.585660000000004 -18.711000000000002l-16.43598 0 0 12.474000000000002a6.20136 6.20136 0 0 0 6.1894800000000005 6.213240000000001Z" fill="none" stroke="#020064" stroke-linecap="round" stroke-linejoin="round" stroke-width="6"></path><path d="M192.74112000000002 492.74676c0.029700000000000004 -13.365 -13.026420000000002 -18.68724 -24.585660000000004 -18.711000000000002l-16.43598 0 0 12.474000000000002a6.2073 6.2073 0 0 0 6.19542 6.213240000000001Z" fill="none" stroke="#020064" stroke-linecap="round" stroke-linejoin="round" stroke-width="6"></path><path d="m140.34438 326.33172 -12.19482 47.3715" fill="none" stroke="#020064" stroke-linecap="round" stroke-linejoin="round" stroke-width="6"></path><path d="m142.60158 377.42166000000003 12.1473 -47.43090000000001" fill="none" stroke="#020064" stroke-linecap="round" stroke-linejoin="round" stroke-width="6"></path><path d="m104.1282 317.02374000000003 -12.14136 47.38338" fill="none" stroke="#020064" stroke-linecap="round" stroke-linejoin="round" stroke-width="6"></path><path d="m106.45074000000001 368.12556 12.14136 -47.39526" fill="none" stroke="#020064" stroke-linecap="round" stroke-linejoin="round" stroke-width="6"></path><path d="M105.02514000000001 197.30304v14.92722c-10.656360000000001 0 -9.925740000000001 18.66348 1.8651600000000002 18.66348h0a37.22598000000001 37.22598000000001 0 0 0 72.75906 -11.19096v-14.933159999999999a37.66554000000001 37.66554000000001 0 0 0 -0.71874 -7.324020000000001" fill="none" stroke="#020064" stroke-linecap="round" stroke-linejoin="round" stroke-width="6"></path><path d="M135.8181 208.49400000000003a4.66884 4.66884 0 1 0 4.66884 4.6629000000000005 4.66884 4.66884 0 0 0 -4.66884 -4.6629000000000005Z" fill="#020064" stroke-width="6"></path><path d="M163.81332 208.49400000000003a4.66884 4.66884 0 1 0 4.66884 4.6629000000000005 4.6629000000000005 4.6629000000000005 0 0 0 -4.66884 -4.6629000000000005Z" fill="#020064" stroke-width="6"></path><path d="M140.48694 234.27954000000003a14.000580000000003 14.000580000000003 0 0 0 16.47162 1.5384600000000002 17.029980000000002 17.029980000000002 0 0 0 2.19186 -1.5384600000000002" fill="none" stroke="#020064" stroke-linecap="round" stroke-linejoin="round" stroke-width="6"></path><path d="M105.02514000000001 212.23026000000002a33.555060000000005 33.555060000000005 0 0 0 27.918000000000003 -14.92722" fill="none" stroke="#020064" stroke-linecap="round" stroke-linejoin="round" stroke-width="6"></path><path d="m103.0293 197.30304 110.2464 0" fill="none" stroke="#020064" stroke-linecap="round" stroke-linejoin="round" stroke-width="6"></path><path d="M103.0293 197.30304a39.31092 39.31092 0 0 1 38.46744 -41.08104 42.73236 42.73236 0 0 1 42.47694 41.057280000000006Z" fill="none" stroke="#020064" stroke-linecap="round" stroke-linejoin="round" stroke-width="6"></path><path d="m100.39639790822402 316.52914796533804 3.704173066242 -14.460324990210001 21.699118797444 5.558470606656001 -3.704173066242 14.460324990210001Z" fill="none" stroke="#020064" stroke-linecap="round" stroke-linejoin="round" stroke-width="6"></path><path d="m136.558741375782 325.78683583802405 3.704173066242 -14.460324990210001 21.693364589358 5.556996602190001 -3.704173066242 14.460324990210001Z" fill="none" stroke="#020064" stroke-linecap="round" stroke-linejoin="round" stroke-width="6"></path><path d="m77.61204000000001 309.66408 -7.128 8.2566c-14.915340000000002 16.98246 -20.671200000000002 32.41458 -17.5824 47.15766a11.196900000000001 11.196900000000001 0 0 1 -21.9186 4.5975600000000005c-4.57974 -21.82356 3.05316 -44.19954 22.67892 -66.528l7.650720000000001 -8.66052Z" fill="none" stroke="#020064" stroke-linecap="round" stroke-linejoin="round" stroke-width="6"></path><path d="m163.071012564108 418.8408658038 22.221441483318003 -2.8206188099100005 4.229806250142 33.323323147092005 -22.221441483318003 2.8206188099100005Z" fill="none" stroke="#020064" stroke-linecap="round" stroke-linejoin="round" stroke-width="6"></path><path d="m164.9538 433.6497 22.215600000000002 -2.8215" fill="none" stroke="#020064" stroke-linecap="round" stroke-linejoin="round" stroke-width="6"></path><path d="m51.667359727302 446.611881066318 8.335494902988 -32.540046883740004 21.693364589358 5.556996601596 -8.335494902988 32.540046883740004Z" fill="none" stroke="#020064" stroke-linecap="round" stroke-linejoin="round" stroke-width="6"></path><path d="m56.29932 428.5353600000001 21.68694 5.55984" fill="none" stroke="#020064" stroke-linecap="round" stroke-linejoin="round" stroke-width="6"></path><path d="m149.2722 291.64806 -5.411340000000001 21.033540000000002" fill="none" stroke="#020064" stroke-linecap="round" stroke-linejoin="round" stroke-width="6"></path><path d="m158.22972000000001 316.40004 11.737440000000001 -45.815220000000004" fill="none" stroke="#020064" stroke-linecap="round" stroke-linejoin="round" stroke-width="6"></path><path d="m115.89534 271.08378000000005 -8.2863 32.34924" fill="none" stroke="#020064" stroke-linecap="round" stroke-linejoin="round" stroke-width="6"></path><path d="m122.07294 307.13958 5.4945 -21.4434" fill="none" stroke="#020064" stroke-linecap="round" stroke-linejoin="round" stroke-width="6"></path><path d="m157.33872 381.2113800000001 -79.72668 -20.49894" fill="none" stroke="#020064" stroke-linecap="round" stroke-linejoin="round" stroke-width="6"></path><path d="M510.13908000000004 331.14906a30.51378 30.51378 0 1 1 0 -52.66404v-44.550000000000004a6.15978 6.15978 0 0 0 -6.15978 -6.16572h-18.491220000000002a6.16572 6.16572 0 0 0 -6.16572 6.16572v14.386680000000002a58.3605 58.3605 0 0 0 -25.803360000000005 14.897520000000002l-12.474000000000002 -7.181460000000001a6.1479 6.1479 0 0 0 -8.41698 2.24532l-9.24858 16.038000000000004a6.16572 6.16572 0 0 0 2.2572 8.41698l12.474000000000002 7.193340000000001a58.841640000000005 58.841640000000005 0 0 0 0 29.80692l-12.474000000000002 7.19928a6.16572 6.16572 0 0 0 -2.2572 8.41698l9.24858 16.038000000000004a6.1479 6.1479 0 0 0 8.41698 2.2512600000000003l12.474000000000002 -7.1874a58.37238000000001 58.37238000000001 0 0 0 25.803360000000005 14.90346v14.386680000000002a6.15978 6.15978 0 0 0 6.16572 6.15978h18.491220000000002a6.15978 6.15978 0 0 0 6.15978 -6.15978Z" fill="none" stroke="#020064" stroke-linecap="round" stroke-linejoin="round" stroke-width="6"></path></svg>